<?xml version="1.0" standalone="no"?>
<!DOCTYPE svg PUBLIC "-//W3C//DTD SVG 1.1//EN" "http://www.w3.org/Graphics/SVG/1.1/DTD/svg11.dtd" >
<!--
2013-9-30: Created.
-->
<svg>
<metadata>
Created by iconfont
</metadata>
<defs>

<font id="iconfont" horiz-adv-x="1024" >
  <font-face
    font-family="iconfont"
    font-weight="500"
    font-stretch="normal"
    units-per-em="1024"
    ascent="896"
    descent="-128"
  />
    <missing-glyph />
    
    <glyph glyph-name="user-info" unicode="&#58880;" d="M842 864l-720 0c-49.5 0-90-40.5-90-90l0-780c0-49.5 40.5-90 90-90l720 0c49.5 0 90 40.5 90 90l0 780c0 49.5-40.5 90-90 90zM812 24l-660 0 0 720 660 0 0-720zM272 324l420 0 0-60-420 0zM272 204l420 0 0-60-420 0zM332 594c0 49.71 40.29 90 90 90s90-40.29 90-90c0-49.71-40.29-90-90-90-49.71 0-90 40.29-90 90zM482 504l-120 0c-49.5 0-90-27-90-60l0-60 300 0 0 60c0 33-40.5 60-90 60z"  horiz-adv-x="1024" />

    
    <glyph glyph-name="pencil" unicode="&#58882;" d="M434.65961844-3.3790012499999875l529.57068469 530.03941406c14.15563312 14.15563312 22.68651188 34.40475188 25.59263531 60.84109969 2.90612344 26.3426025-0.65622187 54.37263187-10.59328875 83.99634187-9.93706688 29.62371-24.93641344 54.37263187-44.90429438 74.34051188l-61.77855937 61.77855937C852.57891594 827.39731406 827.82999406 842.39666062 798.20628406 852.33372844 768.67632031 862.36454156 740.64629094 865.92688594 714.30368844 863.0207625c-26.3426025-2.90612344-46.68546656-11.43700219-60.84109969-25.59263531L125.86056781 305.51379469000005 33.23960188-95.99996719 434.65961844-3.3790012499999875 434.65961844-3.3790012499999875zM763.52029531 589.37643094c18.65543719-19.31165906 31.21739063-43.77934313 37.59211313-73.30930688 6.46846781-29.62371 5.156025-53.71641-3.84358219-72.37184812 0-0.65622187 0.18749156-1.59368062 0.46872938-2.90612344l0.46872937-1.96866469L501.31296594 139.48977563000005c-12.18696938 14.15563312-21.74905312 32.52983344-28.49875875 55.02885281-6.74970562 22.49902031-10.31205094 43.12312219-10.59328875 61.77855937-0.37498406 18.65543719 0.84371344 35.06097281 3.37485281 49.21660594L754.801925 597.06359625 763.52029531 589.37643094 763.52029531 589.37643094zM676.61783 782.39927438c15.46807594 16.68677344 40.87321969 22.87400344 76.21543031 18.37419937 35.43595688-4.49980406 64.30969875-17.99921625 86.90246532-40.49823656l47.24794218-47.24794219c22.49902031-22.49902031 35.9984325-51.46650844 40.49823656-86.90246531 4.49980406-35.34221062-1.59368062-60.74735438-18.37419937-76.21543032l-44.435565-45.37302375c-5.81224687 48.27914719-23.81146312 87.46494094-53.99764781 117.74487188L748.98967813 683.9660615600001c-30.27993094 30.27993094-69.46572469 47.90416313-117.74487188 53.06018906L676.61783 782.39927438 676.61783 782.39927438zM554.09191625 659.87336063c15.46807594 16.12429781 40.68572813 21.84279844 75.74670094 17.34299437 35.06097281-4.49980406 63.84096937-17.99921625 86.33998969-40.49823656l7.68716531-7.68716531L434.65961844 336.35620125c-14.15563312-2.53113937-30.56116875-3.65609063-49.21660594-3.37485281-18.65543719 0.28123781-39.27953906 3.84358219-61.77855938 10.59328875-22.49902031 6.74970562-40.87321969 16.21804406-55.02885281 28.49875875L554.09191625 659.87336063 554.09191625 659.87336063zM179.85821656 282.26480719000006l53.06018907 53.06018906c23.15524125-17.34299437 50.622795-31.49862844 82.49640656-42.46690031 31.87361156-10.96827188 61.30983-16.68677344 88.30865344-17.34299438 0-26.99882438 5.62475531-56.81002594 16.874265-89.24611312 11.24950969-32.52983344 25.59263531-60.278625 42.93562968-83.43386625l-52.12272937-52.12272938-146.71236-28.03002937c-10.31205094 29.62371-24.2801925 53.24768063-41.99817094 70.96565906-17.71797844 17.71797844-41.34194906 31.68612-70.96565906 41.99817094L179.85821656 282.26480719000006 179.85821656 282.26480719000006z"  horiz-adv-x="1024" />

    
    <glyph glyph-name="more" unicode="&#58885;" d="M95.979982 384m-95.958492 0a93.773 93.773 0 1 1 191.916984 0 93.773 93.773 0 1 1-191.916984 0ZM512 384m-95.958492 0a93.773 93.773 0 1 1 191.916984 0 93.773 93.773 0 1 1-191.916984 0ZM927.412175 384m-95.958492 0a93.773 93.773 0 1 1 191.916984 0 93.773 93.773 0 1 1-191.916984 0Z"  horiz-adv-x="1024" />

    
    <glyph glyph-name="back" unicode="&#59031;" d="M363.840919 423.021263C336.938714 398.641139 337.301807 358.513862 364.730379 334.513862L673.951902 63.94503C682.818816 56.186481 696.296418 57.084988 704.05497 65.951902 711.813519 74.818816 710.915012 88.296418 702.048098 96.05497L392.826577 366.623802C384.59578 373.825747 384.502227 384.164713 392.492414 391.40582L702.325747 672.192277C711.056111 680.104171 711.719614 693.595384 703.807723 702.325748 695.895829 711.056111 682.404617 711.719614 673.674253 703.807722L363.840919 423.021263Z"  horiz-adv-x="1024" />

    
    <glyph glyph-name="up" unicode="&#59045;" d="M509.927514 508.840919C517.168621 516.831106 527.507586 516.7375529999999 534.709532 508.506756L805.278364 199.28523499999994C813.036915 190.418321 826.514517 189.519814 835.381431 197.278364 844.248346 205.03691500000002 845.146852 218.51451699999996 837.388303 227.38143100000002L566.819471 536.6029550000001C542.819471 564.031526 502.692194 564.39462 478.31207 537.492414L197.525612 227.65908100000001C189.61372 218.928717 190.277222 205.437504 199.007586 197.52561100000003 207.737949 189.61371899999995 221.229163 190.27722200000005 229.141056 199.00758599999995L509.927514 508.840919Z"  horiz-adv-x="1024" />

    
    <glyph glyph-name="down" unicode="&#59046;" d="M478.31207 251.84091899999999C502.692194 224.938714 542.819471 225.30180700000005 566.819471 252.73037899999997L837.388303 561.951902C845.146852 570.818816 844.248346 584.296418 835.381431 592.05497 826.514517 599.813519 813.036915 598.9150119999999 805.278364 590.048098L534.709532 280.82657700000004C527.507586 272.59578 517.168621 272.50222699999995 509.927514 280.49241400000005L229.141056 590.325747C221.229163 599.056111 207.737949 599.719614 199.007586 591.807723 190.277222 583.895829 189.61372 570.4046169999999 197.525612 561.674253L478.31207 251.84091899999999Z"  horiz-adv-x="1024" />

    
    <glyph glyph-name="pre" unicode="&#59047;" d="M642.174253 391.40582C650.164439 384.164713 650.070886 373.825747 641.84009 366.62380199999996L332.618569 96.05497000000003C323.751654 88.29641800000002 322.853148 74.81881599999997 330.611697 65.95190200000002 338.370249 57.08498799999995 351.847851 56.18648099999996 360.714765 63.945029999999974L669.936288 334.513862C697.36486 358.513862 697.727953 398.641139 670.825747 423.021263L360.992414 703.807722C352.26205 711.719614 338.770837 711.056111 330.858944 702.325748 322.947053 693.595384 323.610556 680.104171 332.340919 672.192277L642.174253 391.40582Z"  horiz-adv-x="1024" />

    
    <glyph glyph-name="set" unicode="&#59054;" d="M825.606018 248.461717 819.263571 235.741545 827.207981 223.95529 905.327294 108.058193 908.52362 139.141679 769.540324 3.626127 799.04025 7.115004 671.47766 83.116681 660.919793 89.407046 649.583401 84.661163C641.524386 81.287326 633.321491 78.204958 625.041941 75.439663L611.811631 71.020858 608.915804 57.376038 580.996546-74.176486 604.846304-54.857143 408.272431-54.857141 431.938677-73.378097 397.841517 64.327061 394.800523 76.608452 383.007648 81.191938C375.650317 84.051482 368.359849 87.170722 361.19018 90.526543L349.017562 96.224034 337.701214 88.973216 217.88134 12.200015 248.055031 9.128335 109.071736 144.636279 112.710251 114.231712 190.651237 238.590583 197.546671 249.592606 192.26576 261.454455C188.597667 269.693634 185.255827 278.10566 182.266902 286.622118L177.674889 299.706315 164.082002 302.447895 29.201333 329.652282 48.761905 305.752599 48.761905 497.40253 29.96636 473.669978 171.221091 506.913988 183.450436 509.792139 188.204044 521.421577C191.634415 529.81379 195.421037 538.096149 199.530538 546.196672L205.959792 558.869818 198.101254 570.70989 124.686421 681.320416 121.526273 650.511849 259.687038 787.298784 229.912147 783.764797 352.693357 709.475686 363.287226 703.065837 374.712497 707.838612C381.330477 710.603196 388.053308 713.173769 394.835279 715.53319L407.314641 719.87471 410.490432 732.700371 443.437389 865.758996 419.771153 847.238095 616.327194 847.238095 592.477417 866.557526 621.325088 730.62796 624.105103 717.528597 636.651202 712.847021C646.841886 709.044368 656.865493 704.767605 666.627682 700.056896L678.796045 694.185096 690.225485 701.390303 803.674639 772.909532 773.791902 775.942467 914.162801 641.245167 910.479401 671.93453 834.210227 552.18633 827.217813 541.207727 832.449542 529.289143C836.047972 521.091433 839.325363 512.718893 842.252943 504.24713L846.63933 491.553911 859.712006 488.47766 994.034289 456.869065 975.238095 480.601771 975.238095 288.95184 994.798163 312.85142 852.982818 284.24525 840.250379 281.676937 835.279123 269.677026C832.31875 262.531102 829.086927 255.442899 825.606018 248.461717ZM857.803703 260.34567 862.624587 236.446091 1004.439932 265.05226 1024 268.997805 1024 288.95184 1024 480.601771 1024 499.911373 1005.203806 504.334475 870.881523 535.943072 865.296766 512.210366 888.340587 520.173602C884.98377 529.887479 881.22675 539.485301 877.099219 548.888369L854.774381 539.088755 875.338534 525.991181 951.607706 645.739381 962.34231 662.593495 947.924307 676.428745 807.553406 811.126044 793.797813 824.325656 777.670669 814.158979 664.221513 742.63975 677.223499 722.015027 687.819315 743.973158C676.702449 749.337561 665.295885 754.20439 653.698526 758.531943L645.174865 735.689482 669.02464 740.751004 640.176969 876.68057 636.0769 896 616.327194 896 419.771153 896 400.690923 896 396.104919 877.479099 363.157965 744.420473 386.824198 738.560422 378.813118 761.587654C371.096704 758.903145 363.448934 755.978908 355.916838 752.832462L365.314667 730.335537 377.935979 751.195387 255.154767 825.484498 238.88953 835.325826 225.379878 821.950511 87.219113 685.163575 72.972426 671.058551 84.058966 654.355008 157.473798 543.744482 177.787526 557.227187 156.044514 568.257702C151.336434 558.97728 146.99905 549.490257 143.067323 539.871503L165.635683 530.646541 160.050276 554.379093 18.795545 521.135083 0 516.71159 0 497.40253 0 305.752599 0 285.798133 19.560572 281.852917 154.441241 254.648533 159.261622 278.548213 136.256342 270.47431C139.682853 260.711021 143.513008 251.069818 147.71909 241.622221L169.992425 251.538338 149.333613 264.486093 71.392628 140.127221 60.94464 123.456915 75.031143 109.722652 214.014438-25.785293 227.881289-39.305393 244.18813-28.856971 364.008004 47.91623 350.854609 68.444723 340.519036 46.362903C348.675428 42.545237 356.968563 38.997003 365.342891 35.742189L374.17527 58.467063 350.509022 52.607068 384.606182-85.098091 389.192156-103.619046 408.272431-103.619046 604.846304-103.619049 624.595936-103.619049 628.696062-84.299706 656.615319 47.252817 632.765562 52.314428 640.489184 29.189193C649.912247 32.336412 659.243565 35.842801 668.413638 39.681773L658.998519 62.171469 646.519381 41.226255 774.081971-34.775422 790.172006-44.36185 803.581897-31.286545 942.565193 104.229005 957.136469 118.436719 945.761519 135.312491 867.642208 251.209587 847.425094 237.582438 869.244171 226.703159C873.230259 234.697506 876.932843 242.818202 880.328282 251.014315L857.803703 260.34567ZM731.428572 396.190477C731.428572 510.644915 638.644915 603.428572 524.190477 603.428572 409.736036 603.428572 316.952382 510.644915 316.952382 396.190477 316.952382 281.736036 409.736036 188.952382 524.190477 188.952382 553.504879 188.952382 582.005801 195.057111 608.253005 206.71738 620.558583 212.184111 626.102566 226.591411 620.635836 238.89699 615.169107 251.202566 600.761807 256.746549 588.456228 251.279821 568.411953 242.375189 546.651767 237.714285 524.190477 237.714285 436.666494 237.714285 365.714285 308.666494 365.714285 396.190477 365.714285 483.71446 436.666494 554.666667 524.190477 554.666667 611.71446 554.666667 682.666667 483.71446 682.666667 396.190477 682.666667 384.625745 681.431994 373.2376 679.007782 362.152755 676.130985 348.998426 684.462569 336.002626 697.616898 333.125828 710.77123 330.24903 723.767027 338.580614 726.643825 351.734944 729.815238 366.236418 731.428572 381.117165 731.428572 396.190477Z"  horiz-adv-x="1024" />

    
    <glyph glyph-name="21" unicode="&#59227;" d="M528.88 534.912l234.944 0 100.704 118.336-100.704 116.64-234.944 0 0 67.264-33.568 0 0-67.264-302.272 0 0-234.976 302.272 0 0-33.44-235.136 0-100.704-116.64 100.704-118.336 235.136 0 0-335.68 33.568 0 0 335.68 302.08 0 0 234.976-302.08 0 0 33.44zM226.608 568.512l0 167.84 521.856 0 71.872-83.2-72-84.64-521.728 0zM797.392 467.904l0-167.84-521.696 0-72.032 84.608 71.872 83.232 521.856 0zM259.92 702.912l167.84 0 0-33.568-167.84 0 0 33.568zM595.696 434.176l167.84 0 0-33.568-167.84 0 0 33.568z"  horiz-adv-x="1024" />

    
    <glyph glyph-name="prompt" unicode="&#58900;" d="M335.97653469 229.37814188000004C236.70487437 289.16000906 170.305085 397.97829656 170.305085 522.305085 170.305085 711.01797562 323.28710937 864 512 864 700.71288969 864 853.694915 711.01797562 853.694915 522.305085 853.694915 397.97829656 787.29512563 289.16000906 688.02346531 229.37814188000004 682.4097725 198.86135624999997 669.05558469 171.05420438 650.07201313 148.06779656000003L373.92798687 148.06779656000003C354.94441531 171.05420438 341.5902275 198.86135624999997 335.97653469 229.37814188000004L335.97653469 229.37814188000004 335.97653469 229.37814188000004ZM756.06779656 489.76271156C756.06779656 637.18639031 643.1524925 750.10169531 512 750.10169531 490.38491469 750.10169531 479.4576275 739.17440719 479.4576275 717.55932187 479.4576275 712.2154228100001 490.38491469 701.28813562 512 701.28813562 616.19350906 701.28813562 707.25423688 610.22740688 707.25423688 489.76271156 707.25423688 484.41881344 718.181525 473.49152531 739.79661031 473.49152531 745.14050844 473.49152531 756.06779656 484.41881344 756.06779656 489.76271156L756.06779656 489.76271156ZM365.55932187 66.71186437999995C365.55932187 84.68452031000004 380.08335406 99.25423688000001 398.02179219 99.25423688000001L625.97820781 99.25423688000001C643.90673562 99.25423688000001 658.44067813 84.80982374999996 658.44067813 66.71186437999995 658.44067813 48.73920843999997 643.91664594 34.16949188000001 625.97820781 34.16949188000001L398.02179219 34.16949188000001C380.09326438 34.16949188000001 365.55932187 48.613905000000045 365.55932187 66.71186437999995L365.55932187 66.71186437999995ZM643.2186575-14.644079059999967C619.2560375-62.862708750000024 569.49783312-96 512-96 454.50216688-96 404.7439625-62.862708750000024 380.7813425-14.644079059999967L643.21871281-14.644067810000024 643.2186575-14.644079059999967 643.2186575-14.644079059999967Z"  horiz-adv-x="1024" />

    
    <glyph glyph-name="30" unicode="&#58893;" d="M413.19850719-37.09209937000003c0 0-33.57723469 93.17970375-103.71432188 131.25532875-70.13708719 38.07082781-112.21991531 82.15965562-108.21271219 157.30358812 0 0 38.075625-140.2760925 183.35664375-125.243085 0 0 119.22796313 217.16987906 123.23996344 268.89512906 4.00816219 51.72812812 15.02821125 78.783705-26.05305562 175.96773375 0 0 72.13924969-52.95513656 77.15185125-174.26296968 0 0 208.39950469 42.00799875 261.50334093 185.28877406 0 0-7.01476406-116.48038594-157.30358812-186.99353813-150.29074313-70.51027406-172.33179938-285.93317719-162.31714875-337.02621656 10.02328406-51.09879469 18.03864938-89.16866344 70.13900531-95.18474438L413.19850719-37.09209937000003zM334.52992438 251.46777655999995c0 0 32.28499031 6.74902406 50.41957593-12.26624343 6.04582125-6.3384225 10.5192675-15.5414625 11.70118688-28.81502344 4.7228775-53.075055-24.04513781-60.11668125-24.04513782-60.11668125s-67.70321719 4.79578875-70.13900531 58.11643687C300.02979594 261.70403624999994 334.52992438 251.46777655999995 334.52992438 251.46777655999995zM422.56559656 538.7891325c10.67276344-4.15110562 38.20897406 25.28557594 38.20897406 25.28557594s-87.17225719 52.10323406-164.32123031-22.04105625c0 0 26.05305563-16.03552781 40.08066563-26.05305563 14.02473094-10.01560969 89.16866344-57.11199844 124.24056468 8.01536532C460.77457062 523.99596281 415.85590531 541.3995234399999 422.56559656 538.7891325zM469.79245625 614.17290281c0 0-86.16685875-41.08126687-111.217395 43.08438844-25.04861719 84.16181812-58.1087625 129.24741-77.14993219 137.26565344 0 0 87.17225719 36.06866531 179.34944063-25.05053532 92.17718344-61.11920156 42.08378719-143.27885719 42.08378718-143.27885718s-26.05305563 48.09123375-59.11895718 63.12424218C443.73940063 689.31779437 479.81094406 640.21540594 469.79245625 614.17290281zM514.21321906 599.2319924999999c0 0 17.96957625 68.55224156 64.77336375 65.24152594 46.8037875-3.3078375 68.07736313-5.44143094 76.59063188 0.11704031 0 0-6.61855219-151.40262938-128.59697157-92.30765531 0 0 42.07515281 27.89404781 47.278665 43.96794937C574.25890813 616.25181281 530.76008094 590.24768438 514.21321906 599.2319924999999zM594.58944406 425.72499c0 0 64.29656719-1.41983719 69.02232281 49.64154281 4.72863375 51.06234-37.35035625 61.93368938-60.04089187 51.06234-22.69341375-10.8742275-55.67297344-55.92048563-10.87134938-100.70963906M701.4360425 636.1122674999999c0 0 47.74682719-86.51989969 66.66136406-84.62998125 18.90973875 1.88991844 35.45660063 27.89692594 26.94812906 45.38874656C786.53322688 614.3609353100001 730.27313094 635.63930812 701.4360425 636.1122674999999zM808.05911187 773.12945063c0 0 87.27970406-47.50123406 89.98411032-98.86672875 2.70536531-51.36165656-32.82318563-76.77578625-52.13777063-80.48271282 0 0-0.77035781 56.15264812-14.67229218 75.46243688 0 0 7.33902375-49.04674594-15.06466594-64.49515219 0 0-44.80162406 11.19848719-35.52759188 52.91100656C789.90629938 699.36602156 813.46888437 708.24096469 808.05911187 773.12945063zM838.78515969 558.59490469c0 0 14.15040563-60.21549375 72.48173718-35.61873094 58.32269719 24.59388563 30.21471469 14.85840563 30.21471469 14.85840562s-31.62208031 76.00350937-96.97872844 44.27877938c0 0 20.38042219-16.97281219 28.8159825-19.78370625C873.31886563 562.32869344 845.70974469 554.85823781 838.78515969 558.59490469zM207.28371781 453.85983469c0 0-82.15965562-52.101315-86.16398062-122.23744313-4.01008125-70.13133094 51.09303938-71.13672938 51.09303937-71.13672937s3.61866656-0.70224375 9.21647156-1.00252032c-1.02074812 2.68330031-7.03107281 20.99824313 2.01559313 61.23144469 0 0 6.14847094-39.14625844 23.24408062-58.827315 17.25006469 4.62598313 35.19661688 16.94882906 38.67138094 47.69406375C252.37218781 371.70305719 197.26427094 396.74783719 207.28371781 453.85983469zM145.517915 235.10031375000005c0 0 24.11612906 2.18539875 37.22755969 11.75395125-7.45894313 4.18756125-76.35271312 40.29747844-105.71456531-35.465235 0 0 28.40825906-45.69190125 78.14957437-25.04861719 30.59653594 12.69891 34.23822656 32.50947844 32.51235656 45.88473C185.33571875 231.55455844000005 170.19814156 227.84187563 145.517915 235.10031375000005zM220.42680687 239.71286625000005c6.1619025 5.98154438 21.15269813 19.4354625 35.88351094 24.27825938 0 0-24.5133-16.58715375-33.08412937-26.12404782 9.45343031-2.78882906 40.51908844-10.27079625 62.82684375 4.19331657 27.98230781 18.14705625 26.43679594 43.47580312 30.44399906 64.51529906C316.49703125 306.57569344 226.94366844 306.55746563 220.42680687 239.71286625000005z"  horiz-adv-x="1024" />

    
    <glyph glyph-name="17" unicode="&#58896;" d="M513.93939367 826.181818c-257.070545 0-465.454545-208.384-465.454545-465.454545 0-257.070545 208.384-465.454545 465.454545-465.454545 257.070545 0 465.454545 208.384 465.454545 465.454545C979.39393967 617.797818 771.00993967 826.181818 513.93939367 826.181818zM232.85139367 50.734545000000026C276.69721167 163.74690899999996 385.42739367 244.36363600000004 513.93939367 244.36363600000004c128.512 0 237.242182-80.616727 281.088-193.582545-74.379636-67.490909-172.776727-108.962909-281.088-108.962909C405.62812167-58.18181800000002 307.23103067-16.70981800000004 232.85139367 50.734545000000026zM374.30303067 430.545455c0 77.125818 62.510545 139.636364 139.636364 139.636364 77.125818 0 139.636364-62.510545 139.636364-139.636364s-62.510545-139.636364-139.636364-139.636364C436.81357567 290.909091 374.30303067 353.41963599999997 374.30303067 430.545455zM830.16921167 86.52800000000002c-41.146182 89.786182-118.365091 159.278545-213.876364 188.695273C666.74812167 308.50327300000004 700.12121167 365.568 700.12121167 430.545455c0 102.818909-83.362909 186.181818-186.181818 186.181818-102.818909 0-186.181818-83.362909-186.181818-186.181818 0-64.977455 33.373091-122.042182 83.874909-155.368727-95.511273-29.370182-172.730182-98.862545-213.876364-188.695273C133.89575767 160.02327300000002 95.03030267 255.720727 95.03030267 360.72727299999997c0 231.377455 187.531636 418.909091 418.909091 418.909091 231.377455 0 418.909091-187.531636 418.909091-418.909091C932.84848467 255.720727 893.93648467 160.02327300000002 830.16921167 86.52800000000002z"  horiz-adv-x="1024" />

    
    <glyph glyph-name="modify-key" unicode="&#58976;" d="M670.45469547 648.1446464c-32.00618667 0-62.0966528-12.46364907-84.72835947-35.09535573s-35.09535573-52.7221728-35.09535573-84.72835947c0-32.00618667 12.46364907-62.0966528 35.09535573-84.72835947 22.63170667-22.63170667 52.7221728-35.09535573 84.72835947-35.09535573s62.0966528 12.46364907 84.72835946 35.09535573c46.71957973 46.71957973 46.71957973 122.73823147 0 169.45672C732.55134827 635.6799061300001 702.46088213 648.1446464 670.45469547 648.1446464zM716.59028053 482.18534507c-12.3228352-12.3239264-28.70743573-19.11027307-46.13558506-19.11027307s-33.81274987 6.78634667-46.13558507 19.11027307c-12.3228352 12.3228352-19.11027307 28.70743573-19.11027307 46.13449386 0 17.42814933 6.78743787 33.81274987 19.11027307 46.13558507 12.3228352 12.3239264 28.70743573 19.11027307 46.13558507 19.11027307s33.81274987-6.78634667 46.13558506-19.11027307C742.02843627 549.016176 742.02843627 507.62459307 716.59028053 482.18534507zM875.41720427 733.28234773c-54.74705173 54.74705173-127.537904 84.89755413-204.9625088 84.89755414s-150.21436587-30.1505024-204.9625088-84.89755414c-41.25404373-41.25404373-68.82296213-93.241584-79.72565334-150.34208-9.4759968-49.62317973-5.9447392-100.3379392 10.15168427-147.7790528l-38.2522016-38.2511104-34.12494187 34.12603307c-14.2778528 14.278944-33.31280747 22.14267947-53.596528 22.14267947-20.28481173 0-39.3197664-7.8637344-53.5976192-22.14267947-29.5512256-29.55231787-29.55231787-77.6374624-0.0010912-107.18978027l34.12494187-34.12712533-23.32267627-23.32267627-34.1227584 34.12385067c-14.2778528 14.278944-33.31389867 22.14267947-53.5976192 22.14267947s-39.31867413-7.8637344-53.5987104-22.14377067c-29.5490432-29.55231787-29.5490432-77.6374624 0.0010912-107.18868907l34.60851094-34.6106944c-18.460784-22.72449067-28.49457707-50.9428992-28.49457707-80.7692032 0-34.33779947 13.2997984-66.54592853 37.44552533-90.69165546 24.14463573-24.14463573 56.35167253-37.4411584 90.6872896-37.4411584s66.54265387 13.29652373 90.6883808 37.4411584l266.52756267 266.52101333c29.9572928-10.1669664 61.2212064-15.31157867 93.1760896-15.31157867 77.42023893 0 150.2034496 30.14722773 204.9450432 84.8899136 54.74596053 54.74705173 84.89646293 127.5368128 84.89646293 204.9614176C960.3136672 605.7444437300001 930.16316373 678.535296 875.41720427 733.28234773zM836.8233376 361.95228799999995c-44.43272213-44.43272213-103.5100672-68.90373973-166.3522688-68.90373973-30.9888352 0-61.15789547 5.94910507-89.67102933 17.68248746-10.18989013 4.1927552-21.89379947 1.84913493-29.68112427-5.93928106l-278.94318187-278.93663254c-13.83685547-13.8357632-32.33802667-21.4560768-52.0966976-21.4560768-19.75757973 0-38.25875093 7.61922133-52.0956064 21.4560768-13.83794667 13.83685547-21.4582592 32.33802667-21.4582592 52.09778987s7.62031253 38.2609344 21.45935147 52.09778987l9.85914133 9.85914133c10.65708587 10.65708587 10.65708587 27.93568853 0 38.5927744l-53.41969173 53.4218752c-8.27089387 8.27198507-8.27089387 21.7333376 0 30.00423147 3.97007253 3.97007253 9.2991616 6.1565056 15.00375253 6.1565056s11.03368-2.18643307 15.00266134-6.1565056l53.41969173-53.42078294c5.11732267-5.11732267 12.05867307-7.99363307 19.29693333-7.99363306 7.23716907 0 14.17851947 2.8752192 19.29693334 7.9925408l61.91763413 61.91545066c10.65708587 10.65708587 10.65708587 27.93568853 0.0010912 38.5927744l-53.4218752 53.4240576c-8.27089387 8.27198507-8.27089387 21.73224533 0.0010912 30.00532267 3.97007253 3.97007253 9.2991616 6.1565056 15.00375253 6.1565056 5.704592 0 11.0325888-2.18643307 15.00266134-6.1565056l53.41969173-53.4229664c5.11732267-5.11732267 12.05867307-7.99363307 19.29693333-7.99363307 7.23716907 0 14.17851947 2.8752192 19.29693334 7.9925408l69.96475413 69.96257067c7.788416 7.788416 10.130944 19.4956 5.93928107 29.68221547-36.27207787 88.14172693-16.167376 188.6379456 51.22016 256.0243904 44.43927147 44.43818027 103.52316693 68.91247253 166.3686432 68.91247253s121.92937067-24.47320107 166.3686432-68.91247253C928.55854293 602.9532768 928.55854293 453.68858453 836.8233376 361.95228799999995z"  horiz-adv-x="1025" />

    
    <glyph glyph-name="31" unicode="&#58909;" d="M451.08221844 803.61084563L91.40673406 803.61084563l0-359.67452532 359.67452531 0L451.08221844 803.61084563 451.08221844 803.61084563zM391.12191313 503.89758469l-238.79356032 0L152.32835281 743.62367719l238.79260031 0L391.12191313 503.89758469 391.12191313 503.89758469zM571.36260125-36.02146687000004l360.63487969-1e-8L931.99748188 323.6540175 571.36260125 323.6540175 571.36260125-36.02146687000004 571.36260125-36.02146687000004zM91.40673406-36.02146687000004l360.63392063-1e-8L452.04065469 323.6540175 91.40673406 323.6540175 91.40673406-36.02146687000004zM152.32739375 263.69179406l237.83416406 0 0-239.72321437-237.83416406 0L152.32739375 263.69179406zM571.36260125 803.61084563l0-359.67452532 360.63487969 0L931.99748188 803.61084563 571.36260125 803.61084563zM870.09056281 503.89758469L631.32482563 503.89758469 631.32482563 743.62367719l238.76573718 0L870.09056281 503.89758469 870.09056281 503.89758469z"  horiz-adv-x="1025" />

    
    <glyph glyph-name="36" unicode="&#59207;" d="M452.225097 749.09995l-340.587939-340.587939c-13.073072-13.073072-34.058794-13.073072-47.131866 0-13.073072 13.073072-12.901058 34.058794 0 47.131866l340.587939 340.587939c13.073072 13.073072 34.058794 13.073072 47.131866 0C465.298169 783.158743 465.298169 762.173022 452.225097 749.09995L452.225097 749.09995zM924.231816 277.26524400000005l-340.587939-340.587939c-13.073072-13.073072-34.058794-13.073072-47.131866 0-13.073072 13.073072-12.901058 34.058794 0 47.131866l340.587939 340.587939c13.073072 13.073072 34.058794 13.073072 47.131866 0C937.304888 311.324038 937.132874 290.16630299999997 924.231816 277.26524400000005L924.231816 277.26524400000005zM451.193012 275.20107499999995l-103.036452-103.036452c-13.073072-13.073072-34.058794-13.073072-47.131866 0-13.073072 13.073072-12.901058 34.058794 0 47.131866l103.036452 103.036452c13.073072 13.073072 34.058794 13.073072 47.131866 0C464.266084 309.259869 464.266084 288.102133 451.193012 275.20107499999995L451.193012 275.20107499999995zM298.444482 371.01293499999997l-74.654124-74.654124c-13.073072-13.073072-34.058794-13.073072-47.131866 0-13.073072 13.073072-12.901058 34.058794 0 47.131866l74.654124 74.654124c13.073072 13.073072 34.058794 13.073072 47.131866 0C311.34554 405.071729 311.34554 383.913993 298.444482 371.01293499999997L298.444482 371.01293499999997zM545.28473 124.00067200000001l-74.654124-74.654124c-13.073072-13.073072-34.058794-13.073072-47.131866 0-13.073072 13.073072-12.901058 34.058794 0 47.131866l74.654124 74.654124c13.073072 13.073072 34.058794 13.073072 47.131866 0C558.357803 158.05946600000004 558.357803 137.07374400000003 545.28473 124.00067200000001L545.28473 124.00067200000001zM536.339997-63.322693999999956L64.505291 408.339997c-13.073072 13.073072-13.073072 34.058794 0 47.131866 13.073072 13.073072 34.058794 12.901058 47.131866 0l471.834705-471.834705c13.073072-13.073072 13.073072-34.058794 0-47.131866C570.398791-76.39576699999998 549.413069-76.39576699999998 536.339997-63.322693999999956L536.339997-63.322693999999956zM732.264069 132.42936299999997L260.429363 604.2640690000001c-13.073072 13.073072-13.073072 34.058794 0 47.131866 13.073072 13.073072 34.058794 12.901058 47.131866 0L779.223921 179.56123000000002c13.073072-13.073072 13.073072-34.058794 0-47.131866C766.322862 119.35629100000006 745.165127 119.52830500000005 732.264069 132.42936299999997L732.264069 132.42936299999997zM912.362842 676.509995l-107.680833 107.852847c-13.073072 13.073072-13.073072 34.058794 0 47.131866 13.073072 13.073072 34.058794 12.901058 47.131866 0l107.680833-107.852847c13.073072-13.073072 13.073072-34.058794 0-47.131866C946.421636 663.436923 925.263901 663.436923 912.362842 676.509995L912.362842 676.509995zM587.256173 567.281035L405.437259 749.09995c-13.073072 13.073072-13.073072 34.058794 0 47.131866 13.073072 13.073072 34.058794 12.901058 47.131866 0l181.990929-181.990929c13.073072-13.073072 13.073072-34.058794 0-47.131866C621.486981 554.207962 600.329246 554.207962 587.256173 567.281035L587.256173 567.281035zM877.09995 277.43725900000004L695.281035 459.256173c-13.073072 13.073072-13.073072 34.058794 0 47.131866 13.073072 13.073072 34.058794 12.901058 47.131866 0l181.990929-181.990929c13.073072-13.073072 13.073072-34.058794 0-47.131866C911.330758 264.364186 890.173022 264.364186 877.09995 277.43725900000004L877.09995 277.43725900000004zM959.322694 676.509995L742.240887 459.428187c-13.073072-13.073072-34.058794-13.073072-47.131866 0-13.073072 13.073072-12.901058 34.058794 0 47.131866l217.081807 217.081807c13.073072 13.073072 34.058794 13.073072 47.131866 0C972.395767 710.740803 972.395767 689.583067 959.322694 676.509995L959.322694 676.509995zM851.641861 784.362842L634.38804 567.281035c-13.073072-13.073072-34.058794-13.073072-47.131866 0-13.073072 13.073072-12.901058 34.058794 0 47.131866L804.509995 831.4947090000001c13.073072 13.073072 34.058794 13.073072 47.131866 0C864.714934 818.421636 864.54292 797.435915 851.641861 784.362842L851.641861 784.362842z"  horiz-adv-x="1024" />

    
    <glyph glyph-name="12" unicode="&#59020;" d="M450.225563 778.158105L305.005111 778.158105c-14.145162 0-25.611308 11.467169-25.611308 25.611308s11.467169 25.611308 25.611308 25.611308l145.220453 0c14.145162 0 25.611308-11.467169 25.611308-25.611308S464.369701 778.158105 450.225563 778.158105zM161.934624 38.32921299999998c-14.145162 0-25.611308 11.466146-25.611308 25.611308L136.323317 727.230202c0 56.325843 45.824675 102.150518 102.150518 102.150518l66.532299 0c14.145162 0 25.611308-11.467169 25.611308-25.611308s-11.467169-25.611308-25.611308-25.611308l-66.532299 0c-28.080545 0-50.92688-22.846334-50.92688-50.92688l0-663.289682C187.545932 49.79535899999996 176.078763 38.32921299999998 161.934624 38.32921299999998zM533.850146 548.703179c-6.27082 0-12.349259 1.311879-17.491373 3.500731-13.472849 5.734608-21.842471 17.800411-21.842471 31.487132L494.516302 803.769412c0 14.145162 11.466146 25.611308 25.611308 25.611308s25.611308-11.467169 25.611308-25.611308l0-188.204429 27.598568 26.505677c14.002922 13.443174 35.911908 13.430894 49.880037-0.025583l22.036899-21.170159L645.254422 803.769412c0 14.145162 11.466146 25.611308 25.611308 25.611308s25.611308-11.467169 25.611308-25.611308l0-218.669278c0-14.44192-8.585539-27.434839-21.872147-33.098839-13.284561-5.665023-28.606525-2.862187-39.027875 7.138584l-37.315884 35.848463-37.318954-35.8413C553.188586 551.686117 543.303448 548.703179 533.850146 548.703179zM845.000722-60.89771900000005L238.447229-60.89771900000005c-56.311517 0-102.123912 45.812395-102.123912 102.123912l0 22.714328c0 14.145162 11.467169 25.611308 25.611308 25.611308s25.611308-11.466146 25.611308-25.611308l0-22.714328c0-28.067242 22.834055-50.900274 50.901297-50.900274l606.553493 0c14.145162 0 25.611308-11.466146 25.611308-25.611308S859.145883-60.89771900000005 845.000722-60.89771900000005zM161.949974 21.63192600000002c-0.300852 0-0.601704 0.00614-0.904603 0.016373-14.135952 0.490164-25.198915 12.348236-24.707728 26.485211 0.976234 28.120454 6.253424 48.251957 16.60826 63.355957 13.712303 20.001543 35.247782 30.142507 64.006779 30.142507l612.344383 0c3.192715 2.719948 6.405897 6.04467 8.53028 8.521071L837.827345 761.411699c-1.827625 5.106298-11.640108 14.918781-16.746406 16.746406l-370.856399 0c-14.145162 0-25.611308 11.467169-25.611308 25.611308s11.467169 25.611308 25.611308 25.611308l371.948267 0c19.715017 0 36.511565-13.852496 44.768623-22.10853 8.257058-8.257058 22.109554-25.053606 22.109554-44.768623L889.050983 143.529183c0-10.781554-6.186909-19.493983-12.238742-26.593681-4.572132-5.363148-10.217712-10.939143-15.493879-15.300474-1.042749-0.862647-2.102894-1.701758-3.139503-2.483564-5.417383-4.076852-12.82612-8.743128-22.251793-8.743128L216.953705 90.40833499999997c-14.966876 0-27.89328 0-29.423123-44.052309C187.050652 32.52194999999995 175.68479 21.632949000000053 161.949974 21.63192600000002zM285.729092 90.99366599999996c-14.145162 0-25.611308 11.466146-25.611308 25.611308L260.117784 803.769412c0 14.145162 11.467169 25.611308 25.611308 25.611308s25.612331-11.467169 25.612331-25.611308l0-687.164439C311.340399 102.45981200000006 299.87323 90.99366599999996 285.729092 90.99366599999996zM843.816756-60.936604999999986c-0.511653 0-1.029446 0.011256-1.557472 0.032746-6.594185 0.279363-29.833469 2.321882-52.017724 16.835434-19.367093 12.672624-42.451858 37.874609-42.451858 85.975117 0 62.032822 35.535331 100.567463 92.737124 100.567463 14.145162 0 25.611308-11.466146 25.611308-25.611308s-11.466146-25.611308-25.611308-25.611308c-12.422937 0-41.513486 0-41.513486-49.344848 0-20.893866 6.54916-35.152615 20.022009-43.589774 10.549264-6.605442 22.034852-7.80885 24.87862-8.010441 1.424442 0.061398 2.874467 0 4.337795-0.188288 13.612019-1.740644 23.515576-13.922081 22.354124-27.596522C869.788268-47.07080599999995 861.969185-60.935581999999954 843.816756-60.936604999999986zM842.011644-9.842926000000034c-1.12973-0.119727-2.26253-0.331551-3.390213-0.630357C839.728648-10.188804000000005 840.860425-9.976980000000026 842.011644-9.842926000000034z"  horiz-adv-x="1024" />

    
    <glyph glyph-name="2" unicode="&#58913;" d="M916 324l-576 0c-35.2 0-64 28.8-64 64 0 35.2 28.8 64 64 64l576 0c35.2 0 64-28.8 64-64C980 352.79999999999995 951.2 324 916 324zM916 652l-576 0c-35.2 0-64 28.8-64 64s28.8 64 64 64l576 0c35.2 0 64-28.8 64-64S951.2 652 916 652zM116-4c-35.2 0-64 28.8-64 64 0 35.2 28.8 64 64 64 35.2 0 64-28.8 64-64C180 24.799999999999955 151.2-4 116-4zM116 324c-35.2 0-64 28.8-64 64 0 35.2 28.8 64 64 64 35.2 0 64-28.8 64-64C180 352.79999999999995 151.2 324 116 324zM116 652c-35.2 0-64 28.8-64 64s28.8 64 64 64c35.2 0 64-28.8 64-64S151.2 652 116 652zM340 124l576 0c35.2 0 64-28.8 64-64 0-35.2-28.8-64-64-64l-576 0c-35.2 0-64 28.8-64 64C276 95.20000000000005 304.8 124 340 124z"  horiz-adv-x="1024" />

    
    <glyph glyph-name="btn" unicode="&#58886;" d="M210.66071435 82.66071435000003m-94.16852685 1e-8a1.9311905 1.9311905 0 1 1 188.33705372 0 1.9311905 1.9311905 0 1 1-188.33705372 0ZM530.83370506 384m-94.16852686 0a1.9311905 1.9311905 0 1 1 188.33705372 0 1.9311905 1.9311905 0 1 1-188.33705372 0ZM530.83370506 685.33928565m-94.16852686-1e-8a1.9311905 1.9311905 0 1 1 188.33705372 0 1.9311905 1.9311905 0 1 1-188.33705372 0ZM210.66071435 685.33928565m-94.16852685-1e-8a1.9311905 1.9311905 0 1 1 188.33705372 0 1.9311905 1.9311905 0 1 1-188.33705372 0ZM210.66071435 384m-94.16852685 0a1.9311905 1.9311905 0 1 1 188.33705372 0 1.9311905 1.9311905 0 1 1-188.33705372 0ZM530.83370506 82.66071435000003m-94.16852686 1e-8a1.9311905 1.9311905 0 1 1 188.33705372 0 1.9311905 1.9311905 0 1 1-188.33705372 0ZM851.00669653 82.66071435000003m-94.16852685 1e-8a1.9311905 1.9311905 0 1 1 188.33705372 0 1.9311905 1.9311905 0 1 1-188.33705372 0ZM851.00669653 685.33928565m-94.16852685-1e-8a1.9311905 1.9311905 0 1 1 188.33705372 0 1.9311905 1.9311905 0 1 1-188.33705372 0ZM851.00669653 384m-94.16852685 0a1.9311905 1.9311905 0 1 1 188.33705372 0 1.9311905 1.9311905 0 1 1-188.33705372 0Z"  horiz-adv-x="1073" />

    
    <glyph glyph-name="24" unicode="&#59005;" d="M901.26199467 262.57271467l36.52539733 287.97610666L675.78538667 649.96693333l-82.968576-39.616512c-2.555904-12.67029333-6.44437333-25.001984-11.52341334-36.864l62.80533334 29.99364267L618.16832 324.37316267000006l1.45271467-14.95313067-191.36512-28.868608-15.70679467-30.97668267 209.83534933 31.63204267 24.19370667-247.55131733 28.15863467 2.77435733-24.346624 248.98218667 2.4576 0.38229333 219.39268266-27.79818667 0.53521067 4.292608 33.15029333-278.41877333-228.48034133 52.73463467L380.13064533-20.029440000000022 377.6512-19.559765330000005l26.72776533 253.952-0.17476266 1.540096-1.09226667 9.51364266-36.634624 72.318976 5.16642133-45.744128-6.53175466-0.98304-211.943424 32.833536 1.25610666 10.43114667L121.95157333 570.32977067l148.28612267-62.60872534-12.37538133 24.40123734c-4.00861867 5.18826667-7.634944 10.62775467-11.075584 16.16554666l-159.09956267 67.19624534 38.22933333-301.29083734-0.720896-5.996544-0.53521066 0.08738134L120.31317333 280.34389333l1.56194134-0.229376-32.65877334-274.366464 290.947072-54.54779733 296.747008 56.51387733 261.89277867-60.43511466L901.26199467 262.57271467zM652.53102933 314.36800000000005l-4.882432-0.720896-1.07042133 10.62775467 27.262976 293.41559466 3.22218667 1.540096 229.84567466-87.20657066-31.20605866-245.91291734L652.53102933 314.36800000000005zM349.75470933-14.338730670000018l-229.33230933 43.01346134 29.43658667 247.08164266 215.20930133-33.34690133 9.77578667 1.47456 1.09226666-9.601024L349.75470933-14.338730670000018zM406.79287467 238.20424533000005l-3.670016 7.23080534-0.294912 2.66513066 9.732096 1.47456L406.79287467 238.20424533000005zM279.86056533 556.30506667l124.96622934-246.611968 123.600896 243.96868266c24.281088 28.311552 39.03761067 65.00078933 39.03761066 105.152512 0 89.28187733-72.63573333 161.91761067-161.91761066 161.91761067s-161.89576533-72.63573333-161.89576534-161.91761067c0-38.87377067 13.78440533-74.55812267 36.68923734-102.50922666L279.86056533 556.30506667zM405.55861333 758.33070933c54.86455467 0 99.516416-44.65186133 99.516416-99.516416s-44.65186133-99.516416-99.516416-99.516416-99.516416 44.65186133-99.516416 99.516416S350.683136 758.33070933 405.55861333 758.33070933z"  horiz-adv-x="1024" />

    
    <glyph glyph-name="10" unicode="&#59402;" d="M960.1642951-1.0228053399999908L573.25269649 387.54580226l383.59758064 381.11206717c16.57008987 16.57008987 16.57008987 43.08223369 0 58.82381906-16.57008987 16.57008987-43.08223369 16.57008987-59.65232355 0L513.60037294 447.19812582 134.14531475 827.48168849c-16.57008987 16.57008987-43.08223369 16.57008987-58.82381906 0s-16.57008987-43.08223369 0-58.82381906l378.62655369-380.28356268-391.88262558-389.39711209c-16.57008987-16.57008987-16.57008987-43.08223369 0-58.82381906 16.57008987-16.57008987 43.08223369-16.57008987 59.65232355 0l391.88262559 388.56860759 387.7401031-388.56860759c16.57008987-16.57008987 43.08223369-16.57008987 58.82381906 0C975.90588049-44.10503902000005 975.90588049-17.59289521000005 960.1642951-1.0228053399999908z"  horiz-adv-x="1024" />

    
    <glyph glyph-name="more-v" unicode="&#58891;" d="M512 665.56640625c51.83203125 0 93.85546875 42.0234375 93.85546875 93.85546875s-42.0234375 93.85546875-93.85546875 93.85546875c-51.83203125 0-93.85546875-42.0234375-93.85546875-93.85546875S460.16796875 665.56640625 512 665.56640625zM512 477.85546875c-51.83203125 0-93.85546875-42.0234375-93.85546875-93.85546875s42.0234375-93.85546875 93.85546875-93.85546875c51.83203125 0 93.85546875 42.0234375 93.85546875 93.85546875S563.83203125 477.85546875 512 477.85546875zM512 102.43359375c-51.83203125 0-93.85546875-41.9765625-93.85546875-93.85546875 0-51.83203125 42.0234375-93.85546875 93.85546875-93.85546875 51.83203125 0 93.85546875 42.0234375 93.85546875 93.85546875C605.85546875 60.45703125 563.83203125 102.43359375 512 102.43359375z"  horiz-adv-x="1024" />

    
    <glyph glyph-name="40" unicode="&#58918;" d="M977.71428594 395.42857125l-16.00000032-16.00000031c-4.57142813-4.57142813-11.42857125-4.57142813-16.00000032 0L911.42857155 411.42857155l2e-8-317.71428561c0-102.85714313-84.57142875-187.42857187-187.42857188-187.42857188l-66.28571439 0-59.42857124 0-146.28571406 0-59.42857125 0-43.42857188 0-48 0 0 0C195.99999969-96 111.42857187-11.428571250000005 111.42857187 91.42857187000004L111.42857187 411.42857155l-31.99999968-31.99999968c-4.57142813-4.57142813-11.42857125-4.57142813-16.00000031 0l-16.00000031 16.00000032c-4.57142813 4.57142813-4.57142813 11.42857125 0 16.00000031L497.71428594 861.71428594C500 864 506.85714313 864 511.42857125 861.71428594 516.00000031 864 522.8571425 864 527.42857157 861.71428594l450.28571437-450.28571439C982.28571406 406.8571425 982.28571406 400.00000031 977.71428594 395.42857125zM417.7142853-25.14285749999999c0-9.14285719 2.28571406-16.00000031 2.28571408-22.8571425l205.71428531 0c2.28571406 6.85714313 2.28571406 16.00000031 2.28571406 22.8571425L627.99999969 233.14285686999995c0 52.57142812-41.14285687 93.71428594-93.71428594 93.71428594l-22.8571425 0c-52.57142812 0-93.71428594-41.14285687-93.71428595-93.71428594L417.7142853-25.14285749999999zM863.42857155 457.1428575L511.42857125 809.1428568700001 159.42857187 457.1428575l1e-8-365.71428563c0-77.71428563 64.00000031-141.71428594 141.71428594-141.71428593l48 0 25.14285749 0c-2.28571406 6.85714313-2.28571406 16.00000031-2.28571406 22.85714251L372.00000031 233.14285686999995c0 77.71428563 64.00000031 141.71428594 141.71428594 141.71428594l22.8571425 0c77.71428563 0 141.71428594-64.00000031 141.71428595-141.71428592l0-258.28571439c0-9.14285719 0-16.00000031-2.28571408-22.8571425l50.28571408 0c77.71428563 0 141.71428594 64.00000031 141.71428592 141.71428594L867.99999969 457.1428575z"  horiz-adv-x="1024" />

    
    <glyph glyph-name="41" unicode="&#58986;" d="M980.305229 550.086L605.001229 810.315c-67.42 53.437-137.495 22.382-166.69-2.597L39.317229 534.321c-17.455-11.595-45.62-35.375-38.05-64.275 5.195-19.855 23.61-31.022 54.765-33.207 0.65-0.06 1.285-0.078 1.925-0.078l93.07-0.12 0-413.629c0-58.57 45.27-106.19 100.915-106.19L527.431229-83.178c8.135 0 15.285 3.59 20.41 9.12 5.64 5.16 9.315 12.43 9.315 20.69L557.156229 192.442l135.435 0c15.475 0 28.035 12.62 28.035 28.17 0 15.55-12.56 28.2-28.035 28.2L557.161229 248.812l0 62.18 135.435 0c15.475 0 28.035 12.63 28.035 28.17 0 15.58-12.56 28.21-28.035 28.21l-96.66 0 100.245 107.367c10.58 11.367 9.99 29.175-1.29 39.852-11.285 10.61-29.065 10.06-39.62-1.292L528.586229 377.571l-122.68 136.63c-10.365 11.537-28.09 12.447-39.605 2.047-11.505-10.432-12.41-28.252-2.045-39.805l97.93-109.072-96.5 0c-15.475 0-28.055-12.63-28.055-28.21 0-15.545 12.565-28.17 28.055-28.17L501.101229 310.991l0-62.185L365.686229 248.80600000000004c-15.475 0-28.055-12.645-28.055-28.2 0-15.55 12.565-28.17 28.055-28.17L501.101229 192.43600000000004l0-219.254L251.927229-26.817999999999984c-24.73 0-44.835 22.37-44.835 49.83L207.092229 460.336c0 1.265-0.57 2.327-0.72 3.542 0.03 0.29 0.18 0.538 0.18 0.842 0.035 15.565-12.5 28.192-28.005 28.242l-99.87 0.138L471.246229 762.08c0.875 0.602 1.86 1.385 2.66 2.077 4.89 4.185 48.955 39.977 96.88 1.478 0.55-0.398 1.07-0.783 1.605-1.183l375.394-260.327c6.325-4.628 13.09-10.687 18.395-16.192-3.56-0.17-7.84-0.295-13.015-0.155l-89.265-0.382c-0.255 0-0.46-0.14-0.715-0.14-0.285 0-0.485 0.14-0.77 0.14-15.49 0-28.05-12.615-28.05-28.195l0.155-436.179c0-27.47-20.125-49.82-44.835-49.82L647.171229-26.798000000000002c-15.465 0-28.035-12.61-28.035-28.19 0-15.55 12.57-28.17 28.035-28.17l142.515 0c55.645 0 100.92 47.63 100.92 106.18l-0.095 408.139 62.195 0.262c17.655-0.307 64.73-1.4 76.525 33.572C1040.770229 499.238 1003.920229 532.736 980.305229 550.086"  horiz-adv-x="1032" />

    
    <glyph glyph-name="user" unicode="&#58932;" d="M810.785967-4.433729999999969c0 165.039847-133.771703 298.769594-298.779827 298.769594-165.020404 0-298.785967-133.729747-298.785967-298.769594l0-59.72629-59.755965 0 0 59.72629c0 151.520949 94.127797 280.83513 226.983641 333.278549-81.915661 46.119387-137.349181 133.719514-137.349181 234.412844 0 148.496056 120.396067 268.901333 268.907473 268.901333 148.509359 0 268.901333-120.406301 268.901333-268.901333 0-100.692307-55.429427-188.293457-137.345088-234.412844 132.851751-52.443419 226.973408-181.7576 226.973408-333.278549l0-59.72629-59.749826 0L810.785967-4.433729999999969zM721.145367 563.257663c0 115.486244-93.635587 209.136158-209.140251 209.136158-115.51592 0-209.151507-93.649913-209.151507-209.136158 0-115.513874 93.635587-209.155601 209.151507-209.155601C627.50978 354.10206300000004 721.145367 447.74379 721.145367 563.257663z"  horiz-adv-x="1024" />

    
    <glyph glyph-name="18" unicode="&#58977;" d="M62.51283037-65.51858526000001L62.51283037 819.5469457l439.31109375 0L501.82392412-65.51858526000001 62.51283037-65.51858526000001 62.51283037-65.51858526000001zM226.78933731 711.70213066c-34.32113789 0-67.55555302 0.54336094-100.65457002-0.67875908-4.27432324-0.13539815-11.53005469-9.29112276-11.66722208-14.4459747-1.08406758-31.47070342-0.5415917-62.9422919-0.54159169-96.51652911l112.86338379 0L226.78933731 711.70213066 226.78933731 711.70213066zM114.06135078 378.33674209000003l112.45630518 0 0 110.15011758c-34.5237917 0-67.62280957 0.40707862-100.65457002-0.54336094-4.06989932-0.13539815-11.12386113-7.6645793-11.25837422-11.9371333C113.65427217 443.24628545 114.06135078 410.41806387 114.06135078 378.33674209000003L114.06135078 378.33674209000003zM227.12738925 249.12738866999996c-0.33805195 6.17254805-11.19111768 16.07428916-17.77074433 16.55039356-25.84151631 1.96636552-51.95471396 1.55928779-77.79623027 0.20265469-6.03626572-0.26991035-16.4813669-7.59555263-16.68402158-12.07253057-1.42388965-32.76007998-0.81504141-65.65644317-0.81504141-98.95988497l113.94833643 0C228.00968721 188.49039932000005 229.02649825 218.87703604 227.12738925 249.12738866999996L227.12738925 249.12738866999996zM450.34354443 694.67740195c-0.33893701 6.0371499-9.69908643 16.21145654-15.32915859 16.48313701-31.19902295 1.62831357-62.53698339 0.81327217-95.49971807 0.81327218l0-113.94656632c33.099017 0 65.31750615-0.67875908 97.39882793 0.74601563 4.95131308 0.20176963 13.22650987 9.83359951 13.49642022 15.53181241C451.83557568 641.02800293 452.03999961 667.95358682 450.34354443 694.67740195L450.34354443 694.67740195zM451.08956006 488.68951435c-35.94768135 0-67.28387256 0.40796367-98.61917783-0.40530849-4.81414482-0.1362832-13.43004873-6.10529151-13.56367676-9.56457334-1.01858115-33.77777607-0.6123876-67.55555302-0.6123876-102.68907803 34.32113789 0 64.02812959-1.01769609 93.53335254 0.74601562 6.71413974 0.40707862 17.97339815 10.10616504 18.38136181 16.07428917C452.10725615 423.16935352 451.08956006 453.6913875 451.08956006 488.68951435L451.08956006 488.68951435zM450.34354443 249.73800702999995c-0.33893701 5.83184092-10.10616504 15.6680956-15.93800596 15.93977607-30.3875209 1.62654346-60.97681143 0.74601562-94.48290703 0.74601563l0-110.35365644 111.16692862 0C451.08956006 188.89747793000004 451.97185888 219.41951192 450.34354443 249.73800702999995L450.34354443 249.73800702999995zM842.58398076-65.72301005999998L842.58398076 153.28873359 670.77829268 153.28873359l0-219.281654L565.24232041-65.99292041000001 565.24232041 427.84987031l382.67586211 0 0-493.57288037L842.58398076-65.72301005999998 842.58398076-65.72301005999998zM563.95294385 491.20012588l0 48.49454707 384.09975175 0 0-48.49454707L563.95294385 491.20012588 563.95294385 491.20012588z"  horiz-adv-x="1024" />

    
    <glyph glyph-name="42" unicode="&#59062;" d="M962.01784625 304.33313531c-44.16418781 54.82450969-35.02677001 134.01546656 19.03628813 178.17965532-6.85306406 33.50386687-17.513385 66.24628219-31.98096375 97.46579437-9.13741781 0.76145156-18.27483657 1.52290313-26.65080282 4.56870938-67.76918531 18.27483657-107.36466375 87.56692406-89.08982718 155.33610937-25.12789969 22.84354594-53.30160656 43.40273625-82.99821563 60.15466969C743.48126094 795.46936313 735.10529469 790.90065469 726.7293275 787.85484844c-65.48483063-25.12789969-138.58417594 7.61451562-163.71207656 73.09934531-34.26531844 3.80725781-68.53063687 3.80725781-102.79595439 0-3.04580625-8.37596625-7.61451562-16.75193344-12.18322405-24.36644813-38.07257625-58.63176656-116.5020825-75.3837-175.13384905-36.54967312-29.69660906-16.75193344-57.870315-37.31112469-82.99821564-60.15466969 2.28435469-9.13741781 3.80725781-17.513385 4.56870938-26.65080281 3.80725781-70.05354-50.25580031-129.44675813-120.30933938-132.49256438C59.69779906 548.7590718700001 49.03747813 516.01665657 42.18441406 482.51278969c6.85306406-5.33016094 13.70612719-12.18322406 19.03628813-19.03628813C105.38488999 409.41344438 97.00892281 329.46103500000004 42.18441406 285.29684719c6.85306406-33.50386687 17.513385-66.24628219 31.98096375-97.46579438 9.13741781-0.76145156 18.27483657-1.52290313 26.65080282-4.56870936 67.76918531-18.27483657 107.36466375-87.56692406 89.08982718-155.33610939 25.12789969-22.84354594 53.30160656-43.40273625 82.99821564-60.15466968 7.61451562 5.33016094 15.99048188 9.13741781 24.36644811 12.18322406 65.48483063 25.12789969 138.58417594-7.61451562 163.71207657-73.09934531 34.26531844-3.80725781 68.53063687-3.80725781 102.79595437 0 3.04580625 8.37596625 7.61451562 16.75193344 12.18322406 24.36644812 38.07257625 58.63176656 116.5020825 75.3837 175.13384906 36.54967313 29.69660906 16.75193344 57.870315 37.31112469 82.99821563 60.15466968-2.28435469 9.13741781-3.80725781 17.513385-4.56870938 26.65080281-3.80725781 70.05354 50.25580031 129.44675813 120.30933938 132.49256438 13.70612719 31.21951219 24.36644812 63.9619275 31.98096375 97.46579438C974.20107125 291.38845969 968.10945875 297.48007125000004 962.01784625 304.33313531zM898.05591875 259.40749594c0-0.76145156 0-0.76145156-0.76145156-1.52290313-86.8054725-29.69660906-145.43724-110.41047001-146.96014313-201.78465187-0.76145156 0-0.76145156-0.76145156-1.52290312-0.76145157-87.56692406 26.65080281-181.98691219-3.80725781-237.57287344-76.90660312-0.76145156 0-0.76145156 0-1.52290313 0-54.82450969 73.09934531-150.00594844 104.3188575-237.57287343 76.90660312-0.76145156 0-0.76145156 0.76145156-1.52290313 0.76145157-1.52290313 91.37418188-60.15466969 172.08804281-146.96014312 201.78465187 0 0.76145156 0 0.76145156-0.76145157 1.52290313 52.540155 74.62224844 52.540155 174.3723975 0 249.7560975 0 0.76145156 0 0.76145156 0.76145157 1.52290313C212.74955375 539.6216540600001 271.38132031 620.335515 272.14277187 712.47114844c0.76145156 0 0.76145156 0.76145156 1.52290313 0.76145156 87.56692406-26.65080281 181.98691219 3.80725781 237.57287344 76.90660313 0.76145156 0 0.76145156 0 1.52290312 0 54.82450969-73.09934531 150.00594844-104.3188575 237.57287344-76.90660313 0.76145156 0 0.76145156-0.76145156 1.52290313-0.76145156 1.52290313-91.37418188 60.15466969-172.08804281 146.96014312-201.78465187 0-0.76145156 0-0.76145156 0.76145156-1.52290313C845.51576469 433.7798925 845.51576469 334.02974437 898.05591875 259.40749594zM447.27662094 208.39024406c14.46757875-14.46757875 38.07257625-14.46757875 52.540155 0l261.17787 261.17787c14.46757875 14.46757875 14.46757875 38.07257625 0 52.540155-14.46757875 14.46757875-38.07257625 14.46757875-52.540155 0L499.81677594 312.70910156c-14.46757875-14.46757875-38.07257625-14.46757875-52.540155 0L342.95776343 417.78941062c-14.46757875 14.46757875-38.07257625 14.46757875-52.54015499 0-14.46757875-14.46757875-14.46757875-38.07257625 0-52.540155L447.27662094 208.39024406z"  horiz-adv-x="1024" />

    
    <glyph glyph-name="20" unicode="&#58962;" d="M243.481384 166.858518c0 26.991748 22.189372 48.873104 49.15963 48.873104l616.894002 0c27.15036 0 49.15963-21.693068 49.15963-48.873104 0-26.991748-22.189372-48.873104-49.15963-48.873104L292.641013 117.98541399999999C265.491677 117.98541399999999 243.481384 139.67848200000003 243.481384 166.858518zM243.481384-11.944796999999994c0 26.991748 22.189372 48.873104 49.15963 48.873104l616.894002 0c27.15036 0 49.15963-21.693068 49.15963-48.873104 0-26.991748-22.189372-48.873104-49.15963-48.873104L292.641013-60.817901000000006C265.491677-60.817901000000006 243.481384-39.12483299999997 243.481384-11.944796999999994zM549.888935 733.818247l0-42.729174c0-23.054065-17.433044-42.10905-39.740096-43.402509-160.066579-9.336646-328.554968-173.447331-357.051999-335.317998C238.093676 423.727817 377.358487 514.1195230000001 510.654352 504.445186c22.086018-1.543146 39.234583-20.499893 39.234583-43.369763l0-46.000684c-0.010233-6.173606 0.463558-8.934486 0.800225-10.109242L751.517095 568.805006c2.589988 2.043542 3.758604 4.564969 3.758604 7.271614s-1.168616 5.250584-3.1262 6.782473L552.373523 745.828792c-1.105171-2.314719-1.915629-8.010441-2.368954-11.206226L549.888935 733.818247zM121.283274 118.57279200000005c-16.674775-3.956102-35.140335 12.717649-40.403199 31.239492-10.748808 37.793768-16.200984 76.739778-16.200984 115.751281 0 210.339566 193.027272 428.2649 400.992767 464.320071l0 7.217379c0 2.381234 0.189312 4.750187 0.557702 7.097652l0.442068 2.989077c2.158153 15.228843 7.189749 50.848085 41.003879 72.750931 13.580297 8.783037 28.371164 13.261025 43.972491 13.261025 18.86465 0 34.213219-6.695492 43.76169-12.294001 1.853208-1.086751 3.631714-2.314719 5.305843-3.684926l203.01781-165.632341c22.159696-17.369599 35.761482-45.782719 35.761482-75.511811 0-29.717835-13.601786-58.119699-36.392862-76.000951l-202.38643-165.120688c-14.727423-11.782348-32.318056-18.130939-49.867758-18.130939-15.432481 0-30.370705 4.619204-44.404326 13.750165-27.128871 17.652032-40.856523 46.12041-40.771589 84.587514l0 1.521656c-134.737704-15.565511-284.297998-138.892327-317.449026-255.621888C142.958946 142.55090199999995 131.61048 118.57279200000005 121.283274 118.57279200000005z"  horiz-adv-x="1024" />

    
    <glyph glyph-name="key" unicode="&#59078;" d="M319.45 28.799999999999955c89.6-89.6 233.6-89.6 316.8 0l12.8 12.8L332.25 358.4l-12.8-12.8C233.05 262.4 233.05 118.39999999999998 319.45 28.799999999999955L319.45 28.799999999999955 319.45 28.799999999999955zM335.45 307.20000000000005l262.4-262.4c-73.6-60.8-179.2-57.6-252.8 12.8C281.05 124.79999999999995 274.65 233.60000000000002 335.45 307.20000000000005L335.45 307.20000000000005 335.45 307.20000000000005zM485.85-128c179.2 0 329.6 147.2 329.6 329.6 0 44.8-16 99.2-32 137.6l336 361.6 3.2 99.2L1103.45 896 956.25 896l-80-83.2 9.6-41.6L844.25 771.2l-60.8-60.8 3.2-32-32 0L591.45 508.8c-32 12.8-67.2 16-105.6 16C306.65 524.8 156.25 377.6 156.25 195.20000000000005S303.45-128 485.85-128L485.85-128 485.85-128zM764.25 643.2l51.2 3.2 0 54.4 38.4 41.6 64 0-6.4 64 60.8 64 105.6 0 12.8-57.6c-112-115.2-204.8-214.4-320-329.6-16-16-3.2-44.8 12.8-25.6 105.6 105.6 217.6 220.8 310.4 313.6l-6.4-57.6L761.05 368c-32 60.8-83.2 99.2-144 131.2L764.25 643.2 764.25 643.2 764.25 643.2zM485.85 489.6c160 0 288-128 288-288s-128-288-288-288-288 128-288 284.8S322.65 489.6 485.85 489.6L485.85 489.6 485.85 489.6z"  horiz-adv-x="1280" />

    
    <glyph glyph-name="43" unicode="&#59048;" d="M396.91972153 384.31625216l-130.79354027 129.86915385-30.61049913-29.68156502-188.31335424 182.74202056 137.29312654 134.50768725 188.30880655-182.74202055-30.6098176-30.61504796 129.86915385-130.79808911L396.91972153 384.31625216zM266.12618126 564.27715357l130.79354027-129.86983652 24.12387556 23.19084772-129.86915386 130.7980891 30.6098176 29.68202012-137.2888064 133.58375595L97.29362034 666.31760896l137.28926151-132.65072811L266.12618126 564.27715357zM754.06586425-53.532593489999954c-25.97719609 0-51.01977259 10.20577337-69.57322354 27.83051776-119.66974749 121.52056718-170.68929365 170.68815587-192.02295353 191.09288163l-10.20509184 10.20804779 7.41896989 12.05568398c63.08159715 102.96825287 151.2084992 140.07424569 176.25562453 149.35108494l10.20008903 3.71005326 196.66307868-183.67050069c18.55140409-17.62474325 28.75695104-40.81627363 28.75695104-66.79210553 0-25.97151175-10.20577337-50.09061091-28.75695104-67.71649194l-50.0919751-48.23842702C804.15670272-44.25575423999999 780.037376-53.532593489999954 754.06586425-53.532593489999954zM526.79365063 181.16427435000003c26.90158251-25.04712419 78.84892615-76.99674226 182.74156658-181.81945344 11.13470862-11.13243421 26.90158251-17.62246997 43.60194048-17.62246998 16.69580914 0 32.46723186 6.49003577 44.52519026 17.62246998l51.01977258 49.16281344c11.13357198 11.13584526 17.62474325 25.97833387 17.62474326 41.74520775 0 15.77142272-6.49117241 30.61391019-17.62474326 40.81854691l-180.88938154 168.82801323C639.03396864 287.84258162000003 576.88539933 255.37534975999995 526.79365063 181.16427435000003zM738.29330489 1.20382804999997c-11.13357198 0-21.33365987 4.63785074-30.61049913 12.05682062l0 0-139.14553799 135.43548474c-8.35131506 8.34904178-12.99030357 19.48147598-12.99030358 31.54034346 0 11.13243421 4.63898851 21.33252323 12.0625061 30.60936249l0.92779748 0.92779747c8.347904 8.34904178 19.47692829 12.98689251 31.53943438 12.98689252 11.12902315 0 21.33365987-4.63785074 30.61049913-12.0579584l0.92779747-0.92893412 139.145538-135.43548472c5.56792263-4.63898851 12.05909504-13.91582777 13.91468999-29.68156502l0-1.85673272 0-1.85332168c-0.92779747-13.91582777-5.56678599-24.1204645-13.91468999-31.54284544C761.48483413 4.911606900000038 750.35126329 1.20382804999997 738.29330489 1.20382804999997zM731.79758478 39.23102265c5.56792263-4.63785074 11.13470862-3.70777998 13.91468999-0.92324978l0.9300719 0.92324978c0 0 1.85559495 1.85900601 1.85559495 6.49685788-0.92779747 2.77998137-0.92779747 4.63898851-1.85559495 5.566786l-0.9300719 0.92779747-139.14417379 134.50882389c-4.63898851 3.71005326-10.20236231 3.71005326-12.98689252 0.92324978-1.85218389-1.85104725-2.78111915-4.63785074-2.78111915-7.41783324 0-3.71005326 0.92893411-4.63785074 2.78111915-6.49685789L731.79758478 39.23102265zM799.51885198 60.57150578000005c-11.13357198 0-21.33820871 4.63785074-30.61504796 12.05568398l-0.92438642 0.93120853-138.22206179 134.50541284c-8.34676736 7.4212443-12.9846181 18.55367851-12.9846181 31.54034346 0 11.13243421 4.63785074 21.33707093 12.06136946 30.61391019l0.92324977 0.92324978c8.35358947 8.35358947 19.48147598 12.99144021 31.54398208 12.99144021 11.12902315 0 21.33365987-4.63785074 30.61049913-12.06023168l0.92779748-0.93120853 139.14644821-135.43184611c8.347904-8.35017842 12.0579584-17.62701767 13.91582777-29.68497608l0-1.85673272c0-12.05909504-5.56792263-24.11477902-14.84476188-31.54034347C821.78121955 64.28155904000005 810.64787513 60.57150578000005 799.51885198 60.57150578000005zM793.02426851 98.60529493000001c4.63785074-3.71460096 10.20463673-3.71460096 14.84248747 0 0.92779747 0.92438642 1.85786937 2.77998137 1.85786937 4.63898852-0.93007189 3.70777998-1.85786937 5.56110051-2.78566684 7.41783324l-139.14644822 134.50768726c-5.56678599 3.71119104-10.20463673 3.71119104-12.98575587 0.92893411-1.85786937-1.85673273-2.78225579-4.63898851-2.78225579-7.42351758 0-1.85332167 0.92438642-3.71005326 1.85332167-4.63785074l0.92893412-0.92552305L793.02426851 98.60529493000001zM203.04867783-42.39674822999996c-25.04826197 0-49.16804381 10.20463673-66.79165042 26.89930922-17.62929209 16.70149461-28.75831523 43.6008027-26.90613134 69.5720869 0.93348295 23.19152925 11.13402595 44.53064704 27.82938112 59.36972459l11.13402596 10.20463673C411.76743936 373.18268018000003 561.11397661 516.03804501 569.46074397 523.4615625900001c10.20577337 10.20509184 7.42465536 17.62474325 3.71460096 27.82938112l0 0.92893412c-41.74293333 99.25933739 17.62474325 179.96044743 44.5249627 209.64246642 43.6008027 45.45799054 96.47366941 58.44374528 121.52079474 59.37268053l4.63898851 0c9.27683925 0 42.67277767-1.85673273 73.28327794-26.90499356l13.91355335-11.12902315-104.8204379-105.75050866 15.76687502-88.1257654 87.19796793-16.69512647 103.89718812 104.82089187 12.98552832-13.91400846c19.48147598-21.33411499 29.68611271-49.16349611 28.7571786-77.92567637-0.92893411-24.11523413-9.27570261-72.35434269-59.36745017-121.51670101-36.17728512-35.24835101-94.62148551-59.37268053-145.64103168-59.37268054-25.04371314 0-47.3108571 5.57087858-66.78642006 14.84749028-4.63898851 1.85218389-7.425792 3.7048229-12.06250609 3.7048229-2.78225579 0-7.42010653-0.92393131-15.76801167-7.41896989-6.49572011-5.56269227-78.85006279-81.63186461-386.82748017-408.16114005l-21.33820871-22.26373177C251.28323869-32.19211150000001 229.02064355-42.39674822999996 203.04867783-42.39674822999996zM739.22110237 786.91060622c-17.62360661-0.92393131-61.2241829-12.05727573-95.54814635-48.23910855-22.26259513-25.04371314-72.35434269-90.90688455-38.03060679-171.61322496l0.92552306-0.92438642c3.71346432-9.27615659 15.77028608-38.9622693-11.13016093-65.8627163-11.13357198-11.12947826-269.01514695-256.02939107-421.15144477-400.7417162l-11.12902314-11.12902314c-10.20509184-9.27683925-15.76732899-21.33934535-16.70035684-35.25403534-0.92438642-16.6946725 5.57133369-32.46609522 16.70035684-42.66845753 11.12902315-11.13357198 25.97651456-17.62815431 41.74338844-17.62815431 14.84362525 0 27.82938112 5.56678599 37.10553771 15.77142272l22.26259513 24.11932672c251.39108523 266.23061789 378.47957618 399.80982499 388.67966407 410.01900942 12.99030357 12.05727573 25.97719609 17.62019555 39.89074944 17.62019556 12.0579584 0 21.33479765-3.70550557 27.83051776-7.419425 14.84248747-7.41942499 31.53829661-11.13402595 50.09083847-11.13402596 41.74384355 0 89.98363477 19.48647879 120.59299726 49.16804381 42.67277767 42.6723237 48.23956366 82.55897941 48.23956366 97.40192199 0.92438642 12.98621099-2.78566685 25.97651456-8.35245283 37.1055377l-89.05015182-89.97794929-129.86983652 24.11477902-23.1903926 129.86983651 88.1257654 89.05424555c-12.99030357 6.49048974-25.04826197 8.347904-34.32396345 8.347904L739.22110237 786.91060622zM203.97260914-3.434023819999993c-14.83839488 0-28.75308487 5.56110051-38.96295197 15.76573724-21.33365987 22.26145735-21.33365987 57.51640291 0 77.92112868 10.20963954 10.20463673 24.12432953 15.77142272 38.96295197 15.77142272 14.84294258 0 28.75763257-5.56678599 38.96295196-15.77142272 21.33365987-21.33365987 21.33365987-55.65967019 0-77.92112868C233.65849429 2.127076689999967 218.81555171-3.434023819999993 203.97260914-3.434023819999993zM203.97260914 70.77591495000001c-5.56223715 0-10.20054414-1.85673273-13.91468999-5.56678599-7.41896989-7.42465536-7.41896989-20.40927346 0-28.75695104 6.49503858-6.49458347 20.40972857-6.49458347 27.82938112 0 7.41896989 7.41783325 7.41896989 20.40927346 0 27.82938112C215.10618112 68.91918222000004 209.53939513 70.77591495000001 203.97260914 70.77591495000001z"  horiz-adv-x="1024" />

    
    <glyph glyph-name="13" unicode="&#58908;" d="M323.57995406 612.87436629c20.90679296 0 37.80051741 16.89372445 37.80051741 37.80051741L361.38047261 802.00640739c0 20.90679296-16.95845149 37.80051741-37.80051741 37.80051741-20.90679296 0-37.80051741-16.89372445-37.80051741-37.80051741l0-151.26679665C285.77943666 629.7680907399999 302.6731611 612.87436629 323.57995406 612.87436629zM512.64726926 612.87436629c20.90679296 0 37.80051741 16.89372445 37.80051741 37.80051741L550.44778667 802.00640739c0 20.90679296-16.89372445 37.80051741-37.80051741 37.80051741-20.90679296 0-37.80051741-16.95845149-37.8005174-37.80051741l0-151.26679665C474.84675186 629.7680907399999 491.80520334 612.87436629 512.64726926 612.87436629zM399.24571705 767.31278222l37.8005174 0 0-75.60103481-37.8005174 0 0 75.60103481ZM588.37775815 767.31278222l37.8005174 0 0-75.60103481-37.8005174 0 0 75.60103481ZM966.38293333 43.66588813999999l0 614.25841039c0.12945408 62.72037888-50.81062741 113.46627925-113.40155221 113.46627925L777.38034517 771.3905777800001l0-75.60103481 75.60103481 0c20.84206592 0 37.92997149-16.95845149 37.92997149-37.8005174l0-614.32313629c0-20.84206592-17.08790557-37.86524445-37.92997149-37.86524445L172.31315741 5.800643700000023c-20.77733888 0-37.80051741 17.02317853-37.80051741 37.86524444L133.93009778 43.66588813999999l0.58254222 614.25841039c0 20.84206592 16.95845149 37.80051741 37.80051741 37.8005174L247.91419221 695.72481593 247.91419221 771.3905777800001 172.31315741 771.3905777800001C109.72223261 771.3905777800001 58.91160519 720.64467741 58.91160519 657.92429853l0-614.25841039c0-62.84983296 50.81062741-113.46627925 113.40155222-113.46627925l680.66822371 0c60.77857223 0 109.97102592 47.70373518 112.94846407 107.83503815 0.06472704 0.32363406 0.45308814 0.7119963 0.45308814 1.03563037l0 3.36579925c0 0.45308814 0.12945408 0.84145038 0.12945408 1.29453852L966.38293333 43.73061517999997zM701.77931037 612.87436629c20.84206592 0 37.80051741 16.89372445 37.8005174 37.80051741L739.57982777 802.00640739c0 20.90679296-16.95845149 37.80051741-37.8005174 37.80051741s-37.80051741-16.89372445-37.80051741-37.80051741l0-151.26679665C663.97879296 629.7680907399999 680.74306333 612.87436629 701.77931037 612.87436629zM285.13216739 461.02502741l453.80039112 0c20.71261184 0 37.80051741 16.95845149 37.8005174 37.80051741 0 20.90679296-17.08790557 37.80051741-37.8005174 37.8005174L285.13216739 536.62606222c-20.90679296 0-37.80051741-16.89372445-37.8005174-37.8005174C247.33164999 477.9834789 264.22537443 461.02502741 285.13216739 461.02502741zM738.93255851 350.01836999L285.13216739 350.01836999c-20.90679296 0-37.80051741-16.95845149-37.8005174-37.8005174s16.89372445-37.80051741 37.8005174-37.80051741l453.80039112 0c20.71261184 0 37.80051741 16.95845149 37.8005174 37.80051741S759.64517149 350.01836999 738.93255851 350.01836999zM738.93255851 156.09653703000004L285.13216739 156.09653703000004c-20.90679296 0-37.80051741-16.95845149-37.8005174-37.67106332 0-20.90679296 16.89372445-37.92997149 37.8005174-37.92997149l453.80039112 0c20.71261184 0 37.80051741 17.02317853 37.8005174 37.92997149C776.73307705 139.20281259 759.64517149 156.09653703000004 738.93255851 156.09653703000004z"  horiz-adv-x="1024" />

    
    <glyph glyph-name="44" unicode="&#58928;" d="M900.60572445-98.07189332999997l-780.73173334 0L119.87399111 472.53845333l59.20995556 0 0-511.39925333 662.30840888 0L841.39235555 472.53845333l59.2133689 0L900.60572445-98.07189332999997zM948.51185778 346.04600889000005L509.20789333 785.34883555 72.94862222 349.08728888999997l-41.86794667 41.86908444 478.12721778 478.12835556 481.17304889-481.17191111L948.51185778 346.04600889000005zM759.27779555 250.34410666999997l-497.67537777 0L261.60241778 442.61603555l497.67424 0L759.27779555 250.34410666999997 759.27779555 250.34410666999997zM320.81351111 309.55633778000004L700.06328889 309.55633778000004l0 73.84974222L320.81351111 383.40608 320.81351111 309.55633778000004zM483.20853333 413.01105778l59.20995556 0L542.41848889 293.14844445000006l-59.20995556 0L483.20853333 413.01105778 483.20853333 413.01105778z"  horiz-adv-x="1024" />

    
    <glyph glyph-name="close" unicode="&#58903;" d="M511.507511 833.63924c-247.299023 0-447.779865-200.480842-447.779864-447.77884 0-247.297999 200.480842-447.778841 447.779864-447.778841 247.296975 0 447.778841 200.481866 447.778841 447.778841 0 247.296975-200.481866 447.778841-447.778841 447.77884z m226.656471-618.350968c15.409474-15.526197 15.37159-40.558145-0.084983-55.969668-7.726239-7.647399-17.803318-11.526901-27.920329-11.526901-10.162062 0-20.326171 3.879501-28.043195 11.604717L510.703761 331.43270399999994 340.634361 163.200154a39.71856 39.71856 0 0 0-27.84149-11.412226c-10.193802 0-20.326171 3.927624-28.082103 11.767514-15.378758 15.534388-15.216984 40.513095 0.309214 55.892876L454.859008 387.433087 286.355128 556.422289c-15.37159 15.457597-15.37159 40.482378 0.084983 55.954309 15.487289 15.456573 40.513095 15.386949 55.961476-0.077815l168.688179-169.227767 171.258131 169.38954c15.526197 15.379781 40.635961 15.2477 55.969667-0.293855 15.333707-15.533364 15.216984-40.606268-0.309213-55.937927L566.911994 387.047083l171.251988-171.758811z"  horiz-adv-x="1024" />

    
    <glyph glyph-name="46" unicode="&#58917;" d="M881.190523 516.16857867l59.391492 27.902923c13.972963 6.577439 19.977027 23.224791 13.427232 37.171132-6.577439 13.972963-23.19817 19.977027-37.171133 13.427233l-65.53378-30.788232-13.693442 159.495736c0 36.871134-29.993697 66.863807-66.863808 66.863808H245.276849c-36.871134 0-66.891452-29.993697-66.781896-64.489418l-13.699586-160.571839-62.771338 29.490969c-13.864431 6.52215-30.567072 0.573376-37.171133-13.427233-6.549794-13.946342-0.545731-30.593694 13.427233-37.171132l59.300366-27.85992c-32.137713-2.527973-57.523925-29.394724-57.471707-60.482954L62.34233 181.14920467000002c0-34.469099 28.028861-62.49796 62.470315-62.49796h20.905691v-66.045723c0-39.6817 32.286176-71.967876 71.967875-71.967876h46.149583c39.6817 0 71.967876 32.286176 71.967876 71.967876v66.045723H680.958485v-66.045723c0-39.6817 32.286176-71.967876 71.967875-71.967876h46.177228c39.6817 0 71.967876 32.286176 71.967876 71.967876v66.045723h22.324796c34.469099 0 62.49796 28.028861 62.44267 64.298974l-17.657926 270.977395c0 32.612795-25.094405 59.442686-56.990481 62.240965z m-635.913674 218.179724h525.471259c6.058329 0 10.970931-4.912602 11.080487-13.345322l17.478747-204.577407h-582.600989l17.572944 206.951797c-0.001024 6.058329 4.939223 10.970931 10.997552 10.970932z m34.632921-681.741757c0-8.869919-7.205081-16.075-16.074999-16.075h-46.149584c-8.869919 0-16.075 7.205081-16.074999 16.075v66.045723h78.299582v-66.045723z m535.268818 0c0-8.869919-7.205081-16.075-16.075-16.075h-46.177228c-8.869919 0-16.075 7.205081-16.074999 16.075v66.045723h78.326203v-66.045723z m78.216648 121.938599H124.812645c-3.629673 0-6.577439 2.974387-6.631705 4.803046l17.766458 274.579423c0 3.629673 2.947766 6.605084 6.577439 6.605084h733.15923c3.629673 0 6.60406-2.974387 6.659351-8.406099l17.657926-270.977394c-0.001024-3.629673-2.976435-6.60406-6.606108-6.60406zM285.831923 402.70160667c-53.108932 0-96.339418-43.229462-96.339418-96.339418 0-53.108932 43.229462-96.339418 96.339418-96.339418 53.108932 0 96.339418 43.229462 96.339418 96.339418s-43.229462 96.339418-96.339418 96.339418z m0-136.784936c-22.297151 0-40.445518 18.148367-40.445518 40.445518s18.148367 40.446542 40.445518 40.446542 40.446542-18.148367 40.446542-40.446542c0-22.297151-18.149391-40.445518-40.446542-40.445518zM723.806038 402.70160667c-53.136577 0-96.366039-43.229462-96.366039-96.339418 0-53.108932 43.229462-96.339418 96.366039-96.339418 53.108932 0 96.339418 43.229462 96.339418 96.339418s-43.230486 96.339418-96.339418 96.339418z m0-136.784936c-22.324796 0-40.473163 18.148367-40.473163 40.445518s18.148367 40.446542 40.473163 40.446542c22.297151 0 40.446542-18.148367 40.446542-40.446542 0-22.297151-18.149391-40.445518-40.446542-40.445518z"  horiz-adv-x="1024" />

    
    <glyph glyph-name="copyright" unicode="&#58985;" d="M988.16 423.25333333C969.38666667 653.65333333 781.65333333 841.38666667 551.25333333 860.16 256 884.05333333 11.94666667 640 35.84 344.74666666999997c18.77333333-232.10666667 206.50666667-419.84 436.90666667-436.90666667C768-116.05333332999999 1012.05333333 128 988.16 423.25333333z m-68.26666667-73.38666666c-15.36-197.97333333-175.78666667-358.4-375.46666666-375.46666667C286.72-44.37333333000004 73.38666667 175.78666667000005 105.81333333 436.90666667c23.89333333 182.61333333 170.66666667 329.38666667 353.28 353.28 261.12 32.42666667 481.28-180.90666667 460.8-440.32zM520.53333333 213.33333332999996c-93.86666667 0-170.66666667 76.8-170.66666666 170.66666667s76.8 170.66666667 170.66666666 170.66666667c56.32 0 107.52-27.30666667 139.94666667-71.68h97.28c-39.25333333 93.86666667-133.12 157.01333333-235.52 157.01333333-141.65333333 0-256-114.34666667-256-256s114.34666667-256 256-256c105.81333333 0 199.68 64.85333333 238.93333333 162.13333333H665.6c-32.42666667-47.78666667-85.33333333-76.8-145.06666667-76.8z"  horiz-adv-x="1024" />

    
    <glyph glyph-name="50" unicode="&#58964;" d="M793.31464192-125.45592889L230.68768711-125.45592889c-62.64955221 0-113.62355427 50.98680889-113.62355428 113.6701258L117.06413283 417.99275861c0 62.64955221 50.97400206 113.63752619 113.62355428 113.63752619l562.62579086 0c62.64955221 0 113.62122525-50.98680889 113.62122525-113.63752619l0-429.77972565C906.93586717-74.46911999999998 855.96419413-125.45592889 793.31464192-125.45592889zM230.68768711 488.83545543c-39.06791993 0-70.86132565-31.77361181-70.86132565-70.84153287l0-429.77972565c0-39.10052067 31.79340459-70.87529757 70.86132565-70.87529757l562.62579086 0c39.06791993 0 70.85783267 31.77361181 70.85783268 70.87529757L864.17131065 417.99275861c0 39.06791993-31.79107669 70.84153287-70.85783268 70.84153288L230.68768711 488.83429035zM518.16843491 165.24176724999995c-64.96300715 0-117.79522333 52.88228181-117.79522332 117.84528782 0 64.9304064 52.83338126 117.74981575 117.79522332 117.74981576s117.7987163-52.81940935 117.79871631-117.74981576C635.96715122 218.12404792999996 583.13144206 165.24176724999995 518.16843491 165.24176724999995zM518.16843491 358.04087751c-41.36390997 0-75.0329947-33.60621227-75.0329947-74.95382244 0-41.38021091 33.66908473-75.05278749 75.0329947-75.05278748 41.36740295 0 75.03648768 33.67257771 75.03648768 75.05278748C593.20492259 324.43466524999997 559.53583787 358.04087751 518.16843491 358.04087751zM518.16843491 5.338649030000056c-11.80711595 0-21.38111431 9.57399837-21.3811143 21.39741412L496.78732061 186.63918136999996c0 11.82108786 9.57399837 21.39392114 21.3811143 21.39392114 11.80827989 0 21.38111431-9.57399837 21.38111432-21.39392114l0-159.90311822C539.54954923 14.911482309999997 529.97555086 5.338649030000056 518.16843491 5.338649030000056zM764.4319744 491.47025522L271.90722446 491.47025522c-10.47516274 0-19.42393401 7.61332509-21.10866887 17.95925105-3.37529173 20.72328761-5.09262621 41.47568299-5.0926262 61.68551652 0 177.73196857 122.23002283 322.33974215 272.46134272 322.33974215S790.63327061 748.84815531 790.63327061 571.11618674c0-20.43337842-1.72082859-41.19043072-5.10892714-61.71928121C783.81981582 499.05330859 774.90364416 491.47025522 764.4319744 491.47025522zM290.55806691 534.26624853l455.23936598 0c1.38201771 12.30427022 2.07244515 24.64114005 2.07244516 36.84993821 0 154.14917234-103.05408341 279.5484069-229.70260708 279.54840689S288.46932195 725.2653590699999 288.46932195 571.11618674C288.46932195 559.00286066 289.17604807 546.66599083 290.55806691 534.26624853z"  horiz-adv-x="1024" />

    
    <glyph glyph-name="11" unicode="&#59210;" d="M185.07352916-15.246649690000027l-102.320305 102.32030499-45.70583123-125.93268307v-55.23363291h697.32461564v55.23363291h-614.61225034zM853.67665568 882.29988528l-76.4985816-6.90420411-633.39168554-633.39168552-28.58340503-98.17778252 125.6565149-125.6565149 98.17778252 28.58340503 633.39168553 633.39168554 6.90420412 76.49858158-125.6565149 125.6565149zM444.25735165 234.27128703000005l-39.07779529 39.0777953 338.85833797 338.85833797 39.0777953-39.07779529-338.85833798-338.85833798z"  horiz-adv-x="1024" />

    
    <glyph glyph-name="1" unicode="&#59079;" d="M466.0096 720.42666667V875.52h146.59413333v-155.09333333c40.064-9.46346667 77.1968-26.5152 109.7984-49.55306667l106.91733334 106.91733333L932.97706667 674.13333333 819.6256 560.78293333a315.45706667 315.45706667 0 0 0 28.80213333-76.1792H1003.52v-146.59413333H848.42666667a315.75466667 315.75466667 0 0 0-38.73066667-93.43573333L929.568 124.70399999999995l-103.65866667-103.6576-119.86986666 119.872a315.75466667 315.75466667 0 0 0-93.43573334-38.73066667v-155.09333333H466.0096V102.18666667000002a315.45706667 315.45706667 0 0 0-76.1792 28.8L276.48 17.637333330000047l-103.6576 103.65866667 106.91733333 106.91626667c-23.03786667 32.6016-40.0896 69.7344-49.55413333 109.7984H75.09333333V484.60373333h155.09333334a315.75466667 315.75466667 0 0 0 38.73066666 93.43573334L156.13866667 690.816l103.6576 103.6576L372.57386667 681.696a315.75466667 315.75466667 0 0 0 93.43573333 38.73066667z m70.56746667-511.18933334c113.1072 0 204.8 91.69066667 204.8 204.8 0 113.1072-91.6928 204.8-204.8 204.8-113.10826667 0-204.8-91.6928-204.8-204.8 0-113.10933333 91.69173333-204.8 204.8-204.8z"  horiz-adv-x="1024" />

    
    <glyph glyph-name="3" unicode="&#58951;" d="M802.1 319.1l-73.2 108c39.7 43.9 62.2 103.7 62.2 163.5 0 63.6-25.4 127.2-69.9 171.7-44.5 44.5-108.1 69.9-171.7 69.9-63.6 0-127.2-25.4-171.7-69.9-44.5-44.5-69.9-108.1-69.9-171.7 0-63.6 25.4-127.2 69.9-171.7 3.3-3.3 6.8-6.5 10.3-9.7l-47.2-79.6c-23.1 9.2-47.8 14.2-73.3 14.2-54 0-104.9-22.3-143-60.4-38.1-38.1-60.4-89-60.4-143s22.3-104.9 60.4-143c38.1-38.1 89-60.4 143-60.4 50.9 0 101.7 22.3 143 60.4 38.1 38.1 60.4 89 60.4 143s-22.3 104.9-60.4 143c-4.7 4.7-9.6 9.2-14.7 13.4l45.7 77.1C475 357.79999999999995 512.3 349 549.5 349c46 0 90.4 13.3 129.5 37.6l55.4-81.7c-54.7-24.8-91.9-79.5-91.9-144.4 0-88.8 73-158.6 158.6-158.6s158.6 69.8 158.6 158.6c0.1 88.5-69.2 158.1-157.6 158.6zM366.3 43.5c-15.1-13.8-31.5-24.4-48.7-31.8-16.8-7.1-33.6-10.8-50-10.8-36.2 0-70.9 14.8-97.8 41.7-26.9 26.9-41.7 61.6-41.7 97.8s14.8 70.9 41.7 97.8c26.9 26.9 61.6 41.7 97.8 41.7 36.2 0 70.9-14.8 97.8-41.7 26.9-26.9 41.7-61.6 41.7-97.8 0-35.8-14.5-70.2-40.8-96.9zM549.5 413c-47.1 0-94.3 19.1-126.4 51.2-32.1 32.1-51.2 79.3-51.2 126.4 0 47.1 19.1 94.3 51.2 126.4 32.1 32.1 79.3 51.2 126.4 51.2 47.1 0 94.3-19.1 126.4-51.2 32.1-32.1 51.2-79.3 51.2-126.4 0-46.7-18.8-93.6-50.4-125.6-18-16.7-38.1-29.6-59.7-38.5-21.8-8.9-44.5-13.5-67.5-13.5z m318.1-319.5c-18-17.8-41.6-27.6-66.5-27.6-24.8 0-48.5 9.8-66.5 27.6-18.1 17.9-28.1 41.7-28.1 67 0 25.9 9.7 49.8 27.3 67.4 17.6 17.6 41.5 27.3 67.4 27.3 25.9 0 49.8-9.7 67.4-27.3 17.6-17.6 27.3-41.5 27.3-67.4-0.1-25.3-10.1-49.2-28.3-67z"  horiz-adv-x="1024" />

    
    <glyph glyph-name="15" unicode="&#58914;" d="M933.376 202.35377800000003l-239.672889-239.672889a112.981333 112.981333 0 0 0-159.800889 0L88.348444 408.177778A111.217778 111.217778 0 0 0 56.888889 497.095111V782.222222a56.888889 56.888889 0 0 0 56.888889 56.888889h285.127111a111.217778 111.217778 0 0 0 88.974222-31.345778l445.496889-445.496889a112.981333 112.981333 0 0 0 0-159.914666zM227.555556 725.333333a56.888889 56.888889 0 1 1 56.888888-56.888889 56.888889 56.888889 0 0 1-56.888888 56.888889z m548.750222-378.083555l-227.555556-227.555556 40.220445-40.220444 227.555555 227.555555z"  horiz-adv-x="1024" />

    
    <glyph glyph-name="38" unicode="&#58899;" d="M853.33333333 247.46666667H375.46666667V725.33333333c0 38.6844448-29.58222187 68.26666667-68.26666667 68.26666667H170.66666667C131.98222187 793.6 102.4 764.01777813 102.4 725.33333333v-637.1555552c0-29.58222187 11.37777813-59.1644448 34.13333333-79.6444448 20.48-22.7555552 50.06222187-34.13333333 79.6444448-34.13333333h637.1555552c38.6844448 0 68.26666667 29.58222187 68.26666667 68.26666667v136.53333333c0 38.6844448-29.58222187 68.26666667-68.26666667 68.26666667z m22.7555552-204.8c0-13.65333333-9.10222187-22.7555552-22.7555552-22.7555552h-113.77777813v68.26666666c0 13.65333333-9.10222187 22.7555552-22.7555552 22.7555552s-22.7555552-9.10222187-22.7555552-22.7555552v-68.26666666h-91.02222293v68.26666666c0 13.65333333-9.10222187 22.7555552-22.7555552 22.7555552s-22.7555552-9.10222187-22.7555552-22.7555552v-68.26666666h-91.02222294v68.26666666c0 13.65333333-9.10222187 22.7555552-22.7555552 22.7555552s-22.7555552-9.10222187-22.7555552-22.7555552v-68.26666666h-91.02222293v68.26666666c0 13.65333333-9.10222187 22.7555552-22.7555552 22.7555552s-22.7555552-9.10222187-22.7555552-22.7555552v-68.26666666h-68.26666667c-18.2044448 0-36.40888853 6.82666667-47.78666666 20.48-13.65333333 13.65333333-20.48 29.58222187-20.48 47.78666666v113.77777707h68.26666666c13.65333333 0 22.7555552 9.10222187 22.7555552 22.75555627s-9.10222187 22.7555552-22.7555552 22.7555552H147.91111147v91.02222186h68.26666666c13.65333333 0 22.7555552 9.10222187 22.7555552 22.75555627s-9.10222187 22.7555552-22.7555552 22.7555552H147.91111147v91.02222187h68.26666666c13.65333333 0 22.7555552 9.10222187 22.7555552 22.75555626s-9.10222187 22.7555552-22.7555552 22.7555552H147.91111147v91.02222187h68.26666666c13.65333333 0 22.7555552 9.10222187 22.7555552 22.75555627s-9.10222187 22.7555552-22.7555552 22.7555552H147.91111147V725.33333333c0 13.65333333 9.10222187 22.7555552 22.7555552 22.7555552h136.53333333c13.65333333 0 22.7555552-9.10222187 22.7555552-22.7555552v-500.62222186c0-13.65333333 9.10222187-22.7555552 22.75555627-22.75555627h500.62222186c13.65333333 0 22.7555552-9.10222187 22.7555552-22.7555552v-136.53333333z"  horiz-adv-x="1024" />

    
    <glyph glyph-name="23" unicode="&#58889;" d="M512 384m-480 0a480 480 0 1 1 960 0 480 480 0 1 1-960 0Z"  horiz-adv-x="1024" />

    
    <glyph glyph-name="checked" unicode="&#58906;" d="M813.29083733 9.075825779999946H208.02946845c-48.234496 0-87.38133333 39.14683733-87.38133334 87.38133333V678.06731378c0 48.234496 39.14683733 87.38133333 87.38133334 87.38133333h421.76056888c16.07816533 0 29.12711111-13.04894578 29.12711112-29.12711111s-13.04894578-29.12711111-29.12711112-29.12711111h-421.76056888c-16.07816533 0-29.12711111-13.04894578-29.12711112-29.12711111v-581.61015467c0-16.07816533 13.04894578-29.12711111 29.12711112-29.12711111h605.26136888c16.07816533 0 29.12711111 13.04894578 29.12711112 29.12711111V418.25348267c0 16.07816533 13.04894578 29.12711111 29.1271111 29.12711111s29.12711111-13.04894578 29.12711112-29.12711111v-321.79632356c0-48.234496-39.14683733-87.38133333-87.38133334-87.38133333zM423.33707378 468.00258845l88.42990933-171.26741334S655.42189511 644.97891555 881.91431111 761.02132622c-5.47589689-82.95401245-27.61250133-154.72321422 11.06830222-243.15312355-99.38170311-22.13660445-303.85402311-270.76562489-370.147328-392.40044089-93.90580622 116.04241067-204.35581155 204.47232-281.71741866 232.08482133l182.21920711 110.45000534z"  horiz-adv-x="1024" />

    
    <glyph glyph-name="22" unicode="&#58888;" d="M336.8 396.8c34.4 0 62.4 28 62.4 62.4s-28 62.4-62.4 62.4-62.4-28-62.4-62.4 28-62.4 62.4-62.4z m375.2 0c34.4 0 62.4 28 62.4 62.4s-28 62.4-62.4 62.4-62.4-28-62.4-62.4 28-62.4 62.4-62.4zM352.8 191.20000000000005c43.2 34.4 100 55.2 172 55.2s128-20.8 172-55.2c26.4-21.6 42.4-42.4 50.4-58.4 6.4-12 0.8-27.2-11.2-33.6s-27.2-0.8-33.6 11.2c-0.8 1.6-3.2 6.4-8 12-7.2 10.4-17.6 20-28.8 29.6-34.4 28-80.8 44.8-140.8 44.8S418.4 180 384 152c-12-9.6-21.6-20-28.8-29.6-4-5.6-7.2-9.6-8-12-6.4-12-20.8-17.6-33.6-11.2-12 6.4-17.6 20.8-11.2 33.6 8 16 24 37.6 50.4 58.4zM524.8-88.79999999999995C264-88.79999999999995 52 123.20000000000005 52 384S264 856.8 524.8 856.8s472.8-212 472.8-472.8-212.8-472.8-472.8-472.8z m0 897.6c-234.4 0-424.8-190.4-424.8-424.8s190.4-424.8 424.8-424.8 424.8 190.4 424.8 424.8-191.2 424.8-424.8 424.8z"  horiz-adv-x="1024" />

    
    <glyph glyph-name="info" unicode="&#58881;" d="M512 820.39466667q95.232 0 178.688-36.352t145.408-98.304 98.304-145.92 36.352-179.2-36.352-178.688-98.304-145.408-145.408-98.304-178.688-36.352-179.2 36.352-145.92 98.304-98.304 145.408-36.352 178.688 36.352 179.2 98.304 145.92 145.92 98.304 179.2 36.352zM567.296 424.10666667q0 24.576-15.872 41.472t-39.424 16.896-39.936-16.896-16.384-41.472l0-343.04q0-24.576 16.384-39.424t39.936-14.848 39.936 15.36 16.384 39.936zM512 551.08266667q29.696 0 50.688 20.992t20.992 50.688-20.992 50.688-50.688 20.992-51.2-20.992-21.504-50.688 21.504-50.688 51.2-20.992z"  horiz-adv-x="1024" />

    
    <glyph glyph-name="49" unicode="&#58988;" d="M829.70333333 662.28040741l-27.84600001-27.845 125.32200001-125.322v-326.38c0.04-0.119 0-0.237 0-0.316v-19.377c0-54.39-44.071-98.461-98.461-98.461s-98.462 44.071-98.462 98.461v19.299c0.04 0.118 0 0.23600001 0 0.394v570.84c0 43.52-35.25 78.77-78.77 78.77H178.87233333c-43.52 0-78.769-35.25-78.769-78.77V-73.50259258999995H21.33333333v-39.384h787.693v39.384h-78.77V66.78440740999997c25.01-25.6 59.825-41.59 98.462-41.59 76.051 0 137.688 61.558 137.806 137.61h0.04V469.72740741l58.092-58.09200001 27.845 27.84500001-222.799 222.799zM690.87033333-73.50359259000004H139.48733333V241.57340740999996h551.384V-73.50259258999995z m0 354.46199999H139.48733333V714.18740741c0 43.481 35.288 78.77 78.77000001 78.77h393.84499999c43.52 0 78.77-35.289 78.77-78.77000001v-433.22999999zM572.71833333 674.8044074100001H257.64133332c-21.74000001 0-39.385-17.64400001-39.38499999-39.38500001V438.49740741c0-21.74000001 17.64400001-39.384 39.38499999-39.384h315.07700001c21.74000001 0 39.384 17.64400001 39.384 39.384V635.4194074100001c0 21.74000001-17.64400001 39.385-39.384 39.385z m0-196.923c0-21.74000001-17.645-39.385-39.385-39.385H297.02533334c-21.74000001 0-39.384 17.645-39.384 39.385V596.0354073999999c0 21.74000001 17.64400001 39.384 39.384 39.384H533.33333333c21.74000001 0 39.385-17.64400001 39.385-39.384v-118.15399999z"  horiz-adv-x="1064" />

    
    <glyph glyph-name="32" unicode="&#58894;" d="M549.50000029 458.99999971L62 458.99999971 62 609 586.99999971 609 586.99999971 834l375.00000029-375.00000029-412.49999971 0zM474.49999971 309.00000029L962 309.00000029l0-150.00000029-524.99999971 0 0-225-375.00000029 375.00000029L474.49999971 309.00000029z"  horiz-adv-x="1024" />

    
    <glyph glyph-name="14" unicode="&#58925;" d="M934.06366345 445.10092405c-63.21351204-72.29254045-221.9632581-123.71229102-408.54247012-123.71229102-4.5899149 0-8.93127845 0.19746023-13.52119333 0.29688079-4.58853405-0.09942053-8.98098871-0.29688078-13.56952276-0.29688079-186.63168396 0-345.28200948 51.41975057-408.44581127 123.6639616-0.88926149-0.93621008-1.77576129-1.87518183-2.61531251-2.76306249v-132.49720033c61.48608017-73.72309153 222.01020669-126.47673435 411.10807235-126.47673435 4.54158546 0 8.93404012 0.24855135 13.62061388 0.29549995 4.49187519-0.04694859 8.88156818-0.29549995 13.42315364-0.29549995 189.09648483 0 349.67170247 52.75364281 411.11083405 126.47673435v132.49720033c-0.74289237 0.93621008-1.77852299 1.82547156-2.56836393 2.81139191zM525.52119333 830.59854167c-4.54158546 0-8.93127845-0.24578967-13.42315364-0.29549993-4.68795459 0.04971027-9.07902842 0.29549995-13.62061388 0.29549993-189.09786567 0-349.6219922-52.75088112-411.10807235-126.52506377v-132.44610922c0.83955122-0.98730118 1.77576129-1.87656268 2.61531251-2.81277274 63.2632223-72.24421102 221.91354783-123.71367186 408.4941407-123.71367189 4.54158546 0 8.93404012 0.24578967 13.62061386 0.34521022 4.49187519-0.09942053 8.88156818-0.34521021 13.42315366-0.34521022 186.67863255 0 345.32895807 51.46946084 408.5424701 123.76338214 0.83955122 0.93621008 1.82547156 1.82547156 2.56698309 2.76306249V704.0734779c-61.43913159 73.77418265-222.01434921 126.52506378-411.11083405 126.52506377zM934.06366345 183.31421663000003c-63.21351204-72.29254045-221.9632581-123.71229102-408.54247012-123.71229103-4.5899149 0-8.93127845 0.19746023-13.52119333 0.29688079-4.58853405-0.09942053-8.98098871-0.29688078-13.56952276-0.29688079-186.63168396 0-345.28200948 51.41836973-408.44581127 123.66258075-0.88926149-0.93621008-1.77576129-1.82409074-2.61531251-2.76306248v-132.44610922c61.48608017-73.77418265 222.01020669-126.52644462 411.10807235-126.52644462 4.54158546 0 8.93404012 0.29688078 13.62061388 0.34521021 4.49187519-0.04832942 8.88156818-0.34521021 13.42315364-0.34521021 189.09648483 0 349.67170247 52.75226197 411.11083405 126.52644462v132.44610922c-0.74289237 0.93897177-1.77852299 1.87794352-2.56836393 2.81277275z"  horiz-adv-x="1024" />

    
    <glyph glyph-name="logout" unicode="&#59038;" d="M512.00040031-75.57333332999997c-59.35999969 0-117.04000031 11.20000031-171.28000031 33.36A438.55999969 438.55999969 0 0 0 200.8004 48.50666666999996 422.23999969 422.23999969 0 0 0 106.56039969 183.14666666999995 407.44000031 407.44000031 0 0 0 72.00039969 348.02666667000005c0 68.4 17.44000031 136.39999969 50.4 196.56A433.75999969 433.75999969 0 0 0 256.16040031 692.26666636a35.28 35.28 0 0 0 48-7.68 32.23999969 32.23999969 0 0 0-7.92-46.15999969 366.72 366.72 0 0 1-112.96000031-124.72000031 341.28 341.28 0 0 1-42.40000031-165.67999969c0-95.44000031 38.56000031-185.20000031 108.72-252.72A376.00000031 376.00000031 0 0 1 512.00040031-9.33333332999996a376.15999969 376.15999969 0 0 1 262.39999969 104.80000031 348.40000031 348.40000031 0 0 1 108.79999969 252.63999938c0 58.39999969-14.32000031 114.31999969-42.48 165.68000062a366.40000031 366.40000031 0 0 1-113.04 124.63999969 32.23999969 32.23999969 0 0 0-7.99999969 46.15999969 35.20000031 35.20000031 0 0 0 48 7.68 433.36000031 433.36000031 0 0 0 133.92-147.67999969 410.23999969 410.23999969 0 0 0 15.76000031-361.44A421.75999969 421.75999969 0 0 0 823.20039969 48.26666666999995a440.47999969 440.47999969 0 0 0-139.83999938-90.72 453.28000031 453.28000031 0 0 0-171.28000031-33.19999969z m10.32 459.67999969a33.76000031 33.76000031 0 0 0-34.40000062 33.12V809.54666667c0 18.24 15.36 33.12 34.40000062 33.12s34.39999969-14.88 34.39999969-33.12v-392.32000031c0-18.40000031-15.36-33.12-34.39999969-33.12z"  horiz-adv-x="1024" />

    
    <glyph glyph-name="25" unicode="&#58978;" d="M932 48H792V496c0 30.9-25.1 56-56 56H624V664c0 30.9-25.1 56-56 56H456c-30.9 0-56-25.1-56-56v-336H288c-30.9 0-56-25.1-56-56v-224H120V748c0 15.5-12.5 28-28 28s-28-12.5-28-28v-700c0-30.9 25.1-56 56-56h812c15.5 0 28 12.5 28 28s-12.5 28-28 28z m-644 0V272h112v-224H288z m168 0V664h112v-616H456z m168 0V496h112v-448H624z"  horiz-adv-x="1024" />

    
    <glyph glyph-name="37" unicode="&#58898;" d="M643.603 321.45799999999997H282.534c-6.575 0-11.875-8.923-11.875-19.875 0-10.96 5.3-19.813 11.875-19.813h361.069c6.56 0 11.864 8.852 11.864 19.813 0 10.962-5.305 19.875-11.864 19.875z m0 0M643.603 413.083H282.534c-6.575 0-11.875-8.887-11.875-19.882 0-10.957 5.3-19.814 11.875-19.814h361.069c6.56 0 11.864 8.858 11.864 19.814 0 10.995-5.305 19.882-11.864 19.882z m0 0M643.603 504.646H282.534c-6.575 0-11.875-8.862-11.875-19.823 0-10.956 5.3-19.849 11.875-19.849h361.069c6.56 0 11.864 8.893 11.864 19.85 0 10.96-5.305 19.822-11.864 19.822z m0 0M900.158 718c0 62.308-50.614 113.017-112.829 113.017H234.202c-0.258 0-0.483-0.039-0.764-0.055-0.263 0.016-0.508 0.055-0.771 0.055-60.57 0-109.856-50.709-109.856-113.017v-660.709c0-8.328 3.264-16.26 9.085-22.003l89.752-89.056c11.51-11.398 29.718-11.398 41.226 0l91.565 90.85 94.998-94.243c11.512-11.448 29.736-11.448 41.247 0l95.004 94.244 95.012-94.244c5.754-5.71 13.191-8.58 20.598-8.58 7.429 0 14.879 2.87 20.633 8.58l86 85.308c5.806 5.778 9.083 13.706 9.083 21.998V609.04c47.845 13.138 83.144 56.963 83.144 108.961z m-193.3-719.933l-97.303 96.539c-11.766 11.706-30.41 11.706-42.2 0l-97.28-96.539-97.293 96.539c-11.788 11.706-30.431 11.706-42.223 0l-93.765-93.01-61.506 61V725.913c0 29.331 23.184 53.18 51.68 53.18 0.256 0 0.484 0.076 0.718 0.076 0.304 0 0.576-0.077 0.857-0.077h0.106c30.13-0.067 54.616-23.904 54.616-53.179 0-29.323-24.541-53.193-54.722-53.193-16.804 0-30.394-13.98-30.394-31.254 0-17.295 13.59-31.314 30.394-31.314h536v-554.829l-57.686-57.255z m67.984 661.969l-473.477 3.028c28.834 14.134 28.854 42.54 28.834 51.081-0.073 31.884-4.91 45.984-13.04 61.698l474.026 0.798c29.74 0 60.765-31.187 60.765-60.085 0-28.89-31.4-55.044-61.138-55.044l-15.97-1.476z m0 0"  horiz-adv-x="1024" />

    
    <glyph glyph-name="28" unicode="&#58970;" d="M998.305848 440.85987899a18.097732 18.097732 0 0 1-13.701834 13.894637l-132.468199 29.807272c-7.840637 1.773783-16.18256 0.179949-22.82782-4.344483s-11.182547-11.683834-12.429338-19.640153l-7.789222-50.0901c-1.182522-0.578408-2.416459-1.015427-3.534713-1.748076l-133.085167-87.969373-37.853566 241.2731a49.910151 49.910151 0 0 1-49.537399 42.352291h-22.570751l-6.439605 84.601755c-2.416459 31.85098-29.331693 56.786775-61.285501 56.786775H331.376153A61.516864 61.516864 0 0 1 269.923557 684.33092699v-79.935933h-7.095134a50.000126 50.000126 0 0 1-49.421718-41.709616l-3.843197-22.557897h-60.578558A56.65824 56.65824 0 0 1 94.460391 498.55925299L14.370216 207.06751899000005a56.426877 56.426877 0 0 1 27.04377-64.408903l91.81257-51.092673-9.961465-58.470584a50.064393 50.064393 0 0 1 11.131133-40.745603 50.000126 50.000126 0 0 1 38.290585-17.776394h495.515383a50.077247 50.077247 0 0 1 49.524546 57.892176l-4.922892 31.362546 193.085318 294.358066c0.462726 0.694089 0.77121 1.452446 1.118254 2.197949l84.344685 62.198099c5.681248 4.177388 8.419044 11.362496 6.953745 18.277681zM295.630562 684.31807399a35.784152 35.784152 0 0 0 35.745591 35.745591h163.419434a35.899833 35.899833 0 0 0 35.642763-33.033502l6.298216-82.648022H505.399726l-2.686382 59.691666a31.696738 31.696738 0 0 1-31.709591 30.282853h-117.930887A31.773859 31.773859 0 0 1 321.337568 662.62136099v-58.23922h-25.707006v79.935933z m184.036452-79.935933H347.044573v58.23922a6.041146 6.041146 0 0 0 6.028293 6.028293h117.930887a6.041146 6.041146 0 0 0 6.028293-5.745516l2.634968-58.521997zM152.378275 204.13691999000002l-12.36507 3.650395a38.946113 38.946113 0 0 0-26.915235 45.694202l44.781604 200.83598a11.028305 11.028305 0 0 0 10.822649 8.676114h27.737859l-44.061807-258.856691zM53.90759 165.13939299000003a30.758432 30.758432 0 0 0-14.755821 35.128623L119.241945 491.74689599a30.912674 30.912674 0 0 0 29.743005 22.673579h56.208367l-4.383044-25.707005h-32.120903a36.555362 36.555362 0 0 1-35.912687-28.791846L88.020787 259.07278999000005a64.717386 64.717386 0 0 1 44.717335-75.938493l15.308522-4.524433-10.244241-60.154393-83.894813 46.683922z m632.842206-156.3243a24.357388 24.357388 0 0 0-18.547604-8.547579H172.686809a24.421655 24.421655 0 0 0-24.074611 28.509069l90.141615 529.577164a24.370241 24.370241 0 0 0 24.087464 20.321388H585.091443c12.095146 0 22.249413-8.676114 24.126025-20.629872l83.097895-529.577165a24.421655 24.421655 0 0 0-5.565567-19.653005z m20.102878 92.815143l-30.000075 191.208706 142.879536 94.447538a5.629834 5.629834 0 0 0 5.334204 0.462726l53.971857-23.611884-172.185522-262.507086z m189.627726 282.931301l-61.105552 26.74814c-0.038561 0.025707-0.089975 0.025707-0.141389 0.03856l7.04372 45.270037a3.406178 3.406178 0 0 0 1.478153 2.352191 3.380471 3.380471 0 0 0 2.724942 0.51414l116.157104-26.131171-66.156978-48.791897zM433.741449 398.62326899c-31.928101 33.483375-57.480864 47.198062-75.88708 40.745604-12.789235-4.460165-20.179999-16.95377-22.005197-37.159476-7.172255-79.871666 88.714876-122.738097 92.815143-124.524735l4.845771-2.120828 4.935745 1.902319c83.663449 32.352266 107.198213 72.185271 112.198225 99.910276 4.100267 22.737846-3.341911 45.115794-19.935783 59.858762-21.966636 19.563031-56.581119 5.79693-96.966824-38.611922z m91.606914-16.645286c-3.071987-16.992331-19.061745-49.460278-91.015653-78.470634-17.416496 8.88177-77.622303 43.599081-72.87936 96.414124 1.015427 11.362496 3.933172 14.845796 4.858624 15.179987a4.190242 4.190242 0 0 0 1.426738 0.205656c6.233949 0 22.994916-8.663261 47.635081-34.550215 4.755796-5.000013 11.401057-7.724955 18.251974-7.724956h0.244217c6.915184 0 13.586152 2.917745 18.277681 8.046293 27.249426 29.794419 52.506559 44.974406 61.491157 37.030941 9.83293-8.753235 14.20312-22.287974 11.709541-36.131196z"  horiz-adv-x="1024" />

    
    <glyph glyph-name="16" unicode="&#59270;" d="M423.3975923 439.24166638H117.1725923A31.20000029 31.20000029 0 0 0 86.27259259 470.29166638V781.54166696C86.27259259 798.64166696 100.2975923 812.66666667 117.1725923 812.66666667h306.75000059c16.94999971 0 30.97500029-14.10000029 30.97499941-31.05v-311.24999971a32.10000029 32.10000029 0 0 0-31.5-31.12500058z m464.32500029 0H581.5725923a31.20000029 31.20000029 0 0 0-30.97499943 31.05V781.54166696c0 17.02500029 14.02499971 31.12499971 30.97499943 31.12499971h306.75000059c16.94999971 0 30.89999971-14.10000029 30.8999997-31.05v-311.24999971a32.10000029 32.10000029 0 0 0-31.5-31.12500058z m-464.32500029-459.52499971H117.1725923A31.20000029 31.20000029 0 0 0 86.27259259 10.766666660000055v311.24999972c0 17.02500029 14.02499971 31.05 30.89999971 31.05h306.75000059c16.94999971 0 30.97500029-14.02499971 30.97499941-31.05v-311.2499997a32.10000029 32.10000029 0 0 0-31.5-31.05000001z m559.35000001-20.85000029l-98.32500001 99.37500029c55.05000029 75.97500029 49.20000029 183.52500029-18.74999971 251.92500029a191.70000001 191.70000001 0 0 1-136.35 57.29999942c-49.20000029 0-99-19.27500029-136.42499972-57.29999942a195.59999971 195.59999971 0 0 1 0-275.32500029c37.50000029-38.025 87.22500029-57.30000029 136.42499972-57.30000029 39.75000029 0 79.57500029 13.50000001 113.55000028 38.025l98.325-99.37499942a12.75000029 12.75000029 0 0 1 17.55 0l23.99999944 24.525c4.725 5.24999971 4.725 13.50000001 0 18.14999942z m-345.74999944 121.57500058a131.92499971 131.92499971 0 0 0 0 186.22499942c24.75 25.12500029 57.75000029 38.54999971 93.15 38.55000058s68.4-13.42500029 93.15-38.55000058a131.92499971 131.92499971 0 0 0 0-186.22499942c-24.75-25.04999971-57.75000029-38.54999971-93.15-38.55000058s-68.4 14.02499971-93.15 38.55000058z"  horiz-adv-x="1024" />

    
    <glyph glyph-name="9" unicode="&#58997;" d="M952.16 423.84h-399.84V824.16c0 22.08-18.24 39.84-39.84 39.84s-39.84-18.24-39.84-39.84v-399.84H71.84C50.24 423.84 32 406.08 32 384s18.24-39.84 39.84-39.84h399.84v-399.84c0-22.08 18.24-39.84 39.84-39.84s39.84 18.24 39.84 39.84v399.84h399.84c22.08 0 39.84 18.24 39.84 39.84s-17.28 39.84-38.88 39.84"  horiz-adv-x="1024" />

    
    <glyph glyph-name="reset" unicode="&#58902;" d="M533.4 65.79999999999995c-112 0-202.6 91.8-206.8 187.4l127.3 124.6-389.7 72.5v-454.1l115.9 113.4c17.9-23.3 115.3-173.4 312.5-173.4 254.2 0 211.4 345.5 211.4 345.5s-63-215.9-170.6-215.9z m310.3 592.6C825.8 681.7 728.6 831.8 531.3 831.8c-254.2 0-211.4-345.5-211.4-345.5s62.9 215.9 170.6 215.9c112 0 202.6-91.8 206.8-187.4L570 390.2l389.8-72.6V771.8L843.7 658.4z m0 0"  horiz-adv-x="1024" />

    
    <glyph glyph-name="security" unicode="&#58883;" d="M509.297-102.46799999999996c-147.405 0-421.64 218.119-421.64 424.359V715.636c0 9.537 8.046 17.258 18.037 17.452l23.873 0.39c0.911 0 94.525 1.88 191.064 39.833 99.07 38.86 162.909 83.562 163.557 84.02l14.145 9.925a19.063 19.063 0 0 0 10.899 3.438c3.83 0 7.656-1.103 10.837-3.373l14.336-9.99c0.649-0.455 64.556-45.156 163.557-84.02 96.604-37.953 190.221-39.833 191.194-39.833l23.679-0.39c9.997-0.194 18.042-7.915 18.042-17.452l0.192-393.742c-0.007-206.24-274.241-424.362-421.772-424.362zM865.99 669.768c-36.263 2.724-112.497 12.004-191.713 43.144-80.965 31.789-140.456 67.472-164.98 83.241-24.46-15.705-84.02-51.452-164.919-83.24-79.087-31.076-155.126-40.353-191.846-43.145V321.89c0-161.74 238.878-359.485 356.765-359.485 45.677 0 134.683 36.782 222.208 117.62C815.84 157.88400000000001 866.19 248.32299999999998 866.19 321.89l-0.201 347.877zM475.494 255.78499999999997a32.113 32.113 0 0 0-22.896-9.537 32.365 32.365 0 0 0-22.969 9.537l-97.317 97.25c-12.65 12.717-12.65 33.214 0 45.868 12.718 12.718 33.218 12.718 45.868 0l74.418-74.353L640.48 512.44c12.712 12.715 33.212 12.715 45.869 0 12.71-12.653 12.71-33.153 0-45.868L475.494 255.78499999999997z"  horiz-adv-x="1024" />

    
    </font>
</defs>
</svg>
